<svg width="24" height="25" viewBox="0 0 24 25" fill="none" xmlns="http://www.w3.org/2000/svg">
<path d="M6.50007 3.62695C3.46251 3.62695 1.00007 6.08939 1.00007 9.12695C1.00007 11.3705 2.16802 13.5414 3.9112 13.9603C4.58361 14.1218 5.1191 14.9847 5.00404 15.9698C4.85003 17.2883 3.65771 18.6203 1.29692 19.6701C0.771277 19.9038 0.991376 20.6945 1.56219 20.6231C7.71476 19.8528 11.9795 15.8417 12 10.1668C12.0001 6.264 9.69428 3.62695 6.50007 3.62695Z" fill="#023047" fill-opacity="0.5"/>
<path d="M18.5001 3.62695C15.4625 3.62695 13.0001 6.08939 13.0001 9.12695C13.0001 11.3705 14.168 13.5414 15.9112 13.9603C16.5836 14.1218 17.1191 14.9847 17.004 15.9698C16.85 17.2883 15.6577 18.6203 13.2969 19.6701C12.7713 19.9038 12.9914 20.6945 13.5622 20.6231C19.7148 19.8528 23.9795 15.8417 24 10.1668C24.0001 6.264 21.6943 3.62695 18.5001 3.62695Z" fill="#023047" fill-opacity="0.5"/>
</svg>
