<svg width="24" height="18" viewBox="0 0 24 18" fill="none" xmlns="http://www.w3.org/2000/svg">
<path d="M18.0624 0.601563C21.1 0.601563 23.5624 3.064 23.5624 6.10156C23.5624 8.34516 22.3945 10.516 20.6513 10.9349C19.9789 11.0964 19.4434 11.9593 19.5585 12.9444C19.7125 14.2629 20.9048 15.595 23.2656 16.6447C23.7912 16.8784 23.5711 17.6692 23.0003 17.5977C16.8477 16.8274 12.583 12.8163 12.5625 7.1414C12.5624 3.23861 14.8682 0.601563 18.0624 0.601563Z" fill="#023047" fill-opacity="0.5"/>
<path d="M6.06243 0.601563C9.09999 0.601563 11.5624 3.064 11.5624 6.10156C11.5624 8.34516 10.3945 10.516 8.6513 10.9349C7.97889 11.0964 7.4434 11.9593 7.55846 12.9444C7.71247 14.2629 8.90479 15.595 11.2656 16.6447C11.7912 16.8784 11.5711 17.6692 11.0003 17.5977C4.84775 16.8274 0.58296 12.8163 0.5625 7.1414C0.562426 3.23861 2.86822 0.601563 6.06243 0.601563Z" fill="#023047" fill-opacity="0.5"/>
</svg>
