<svg width="70" height="71" viewBox="0 0 70 71" fill="none" xmlns="http://www.w3.org/2000/svg">
<g clip-path="url(#clip0_469_5969)">
<path d="M35.8093 44.7668C35.9232 45.5166 36.6229 46.0264 37.3661 45.9135C38.1127 45.8001 38.6261 45.1031 38.5128 44.3567C38.3758 43.454 38.2136 42.5271 38.031 41.6015C37.8847 40.8608 37.1654 40.3791 36.4248 40.5251C35.6841 40.6714 35.2021 41.3904 35.3484 42.1313C35.5233 43.0174 35.6783 43.9043 35.8093 44.7668Z" fill="#E5EAEC"/>
<path d="M36.5937 62.2393C37.3392 62.3697 38.0463 61.8717 38.1769 61.1293C38.3408 60.1955 38.4855 59.2677 38.6066 58.3717C38.7076 57.6234 38.183 56.9349 37.4348 56.8337C36.6871 56.7328 35.998 57.2573 35.8968 58.0055C35.7805 58.8659 35.6416 59.7576 35.4838 60.6561C35.353 61.3999 35.8499 62.1086 36.5937 62.2393Z" fill="#E5EAEC"/>
<path d="M39.0848 52.7779C39.0962 52.3817 39.1019 51.9888 39.1019 51.6096C39.1018 51.068 39.0902 50.5092 39.0672 49.9491C39.0364 49.1945 38.3999 48.6114 37.6456 48.6386C36.891 48.6695 36.3044 49.3061 36.3351 50.0603C36.3565 50.584 36.3674 51.1056 36.3675 51.6101C36.3675 51.9628 36.3622 52.3293 36.3515 52.6997C36.3299 53.4545 36.9243 54.0839 37.6791 54.1055C37.6925 54.1059 37.7056 54.106 37.719 54.106C38.4559 54.106 39.0636 53.5193 39.0848 52.7779Z" fill="#E5EAEC"/>
<path d="M33.7028 35.6351C33.7043 35.6397 33.8608 36.1114 34.094 36.9234C34.3015 37.6466 35.056 38.0692 35.7852 37.8604C36.511 37.6521 36.9305 36.8948 36.7222 36.1691C36.4714 35.2954 36.3039 34.7916 36.297 34.771C36.2955 34.7666 36.1466 34.318 35.9234 33.5434C35.7142 32.8178 34.9562 32.3995 34.2309 32.6085C33.5054 32.8177 33.0869 33.5754 33.2961 34.301C33.5367 35.1356 33.6962 35.6155 33.7028 35.6351Z" fill="#E5EAEC"/>
<path d="M34.0965 12.4604C34.2117 11.6013 34.3498 10.7093 34.5071 9.80969C34.6371 9.06594 34.1396 8.3576 33.3957 8.22758C32.6516 8.09797 31.9436 8.59508 31.8136 9.33896C31.65 10.2741 31.5064 11.202 31.3863 12.097C31.286 12.8454 31.8112 13.5334 32.5596 13.6337C33.3063 13.7339 33.9959 13.2103 34.0965 12.4604Z" fill="#E5EAEC"/>
<path d="M30.9139 17.6932C30.9038 18.0646 30.8986 18.436 30.8984 18.7974C30.8984 19.3583 30.911 19.9391 30.9358 20.5239C30.9669 21.2586 31.5723 21.8332 32.3008 21.8332C32.3203 21.8332 32.34 21.8328 32.3597 21.832C33.1141 21.8 33.6998 21.1626 33.6677 20.4081C33.6446 19.8617 33.6328 19.3198 33.6328 18.7976C33.6328 18.461 33.6377 18.1147 33.6472 17.768C33.6677 17.0132 33.0727 16.3846 32.3179 16.3639C31.5591 16.3411 30.9345 16.9387 30.9139 17.6932Z" fill="#E5EAEC"/>
<path d="M31.9823 28.8693C32.1297 29.6125 32.852 30.091 33.5894 29.9442C34.33 29.7972 34.8114 29.0776 34.6643 28.337C34.4882 27.4496 34.3321 26.5628 34.2003 25.7016C34.0861 24.9552 33.3884 24.4429 32.6421 24.5569C31.8958 24.6711 31.3832 25.3687 31.4974 26.1149C31.6353 27.0161 31.7984 27.9426 31.9823 28.8693Z" fill="#E5EAEC"/>
<path d="M1.36741 61.1795H12.5809C13.2507 61.7811 13.9887 62.2896 14.7847 62.703C14.6059 64.4218 14.4925 66.7384 14.4925 68.8358C14.4925 69.5907 15.1046 70.203 15.8597 70.203H54.1409C54.8958 70.203 55.508 69.5907 55.508 68.8358C55.508 60.8197 53.8219 56.53 52.3343 52.7454C50.959 49.2464 49.7713 46.2247 50.0377 40.7381C50.1923 37.5471 51.1711 34.6965 52.3046 31.3956C52.7057 30.2273 53.1131 29.0394 53.4983 27.7951L59.3902 43.9499C59.6306 44.6094 60.33 44.9772 61.006 44.8077L68.9644 42.8184C69.3196 42.7297 69.6244 42.5022 69.8104 42.1869C69.9965 41.8715 70.0483 41.4948 69.9544 41.1411L67.6855 32.6012C67.4917 31.8712 66.7415 31.4373 66.0132 31.6307C65.2834 31.8246 64.8489 32.5734 65.0428 33.3031L66.9553 40.5021L61.5372 41.8563L54.7078 23.1315C55.2438 20.5095 55.5079 17.924 55.5079 15.2423C55.5079 14.4873 54.8957 13.8751 54.1407 13.8751C53.3858 13.8751 52.7735 14.4873 52.7735 15.2423C52.7735 21.1544 51.4624 25.4279 49.7183 30.5076C48.5671 33.8601 47.4798 37.0267 47.3063 40.6055C47.0115 46.6785 48.3608 50.1112 49.7892 53.7456C51.1645 57.2444 52.5835 60.8544 52.7559 67.4686H36.7959C36.8665 67.1975 36.9425 66.9 37.0228 66.576C37.2042 65.843 36.7572 65.1017 36.0243 64.9202C35.2911 64.7385 34.5501 65.1858 34.3685 65.9186C34.2152 66.5374 34.0774 67.0605 33.9663 67.4687H17.2422C17.2716 66.1378 17.3415 64.7999 17.4393 63.6644C18.1877 63.8285 18.9519 63.9141 19.726 63.9141H29.5314C31.793 63.9141 33.633 62.0741 33.633 59.8125V54.3438C33.633 52.0822 31.793 50.2422 29.5314 50.2422H28.027C27.4758 47.5387 25.3238 45.4114 22.608 44.8947C22.7394 43.5559 22.7682 42.1407 22.694 40.6056C22.5205 37.0266 21.4332 33.8601 20.2821 30.5076C18.6757 25.8292 17.2269 21.385 17.2269 15.2423C17.2269 14.4873 16.6148 13.8751 15.8597 13.8751C15.1046 13.8751 14.4925 14.4873 14.4925 15.2423C14.4925 17.9242 14.7567 20.5094 15.2925 23.1305L8.46337 41.8567L3.04522 40.5025C3.04522 40.5025 9.64461 15.6624 9.64612 15.6559C10.7127 11.3875 14.5305 8.40664 18.9304 8.40664H24.0628C27.364 8.40664 30.1261 6.05426 30.7615 2.93654H33.2046C33.1296 3.22583 33.0488 3.54316 32.9629 3.89069C32.782 4.62364 33.2295 5.36466 33.9627 5.54567C34.6943 5.72587 35.4364 5.28071 35.6177 4.54585C35.7767 3.90177 35.9197 3.35872 36.0341 2.93777H39.2392C39.8744 6.05413 42.6367 8.4065 45.9377 8.4065H51.0702C55.4702 8.4065 59.2879 11.3877 60.3544 15.6557C60.3562 15.6623 61.8829 21.4099 61.8829 21.4099C62.0768 22.1396 62.8253 22.5745 63.5553 22.3804C64.2851 22.1865 64.7196 21.4377 64.5257 20.708L63.0047 14.9828C61.6297 9.49984 56.7237 5.67186 51.07 5.67186H45.9376C43.676 5.67186 41.8361 3.83191 41.8361 1.57031C41.8361 0.81535 41.2238 0.203125 40.4689 0.203125C37.0485 0.203125 32.954 0.203125 29.5314 0.203125C28.7763 0.203125 28.1642 0.81535 28.1642 1.57031C28.1642 3.83191 26.3243 5.67186 24.0627 5.67186H18.9303C13.2765 5.67186 8.3704 9.50011 6.99569 14.9828L0.0461604 41.1411C-0.149757 41.8786 0.296355 42.6336 1.036 42.8185L8.99438 44.8078C9.67155 44.9773 10.37 44.6087 10.6103 43.95L16.5023 27.7952C16.8874 29.0395 17.2948 30.2274 17.696 31.3957C18.8294 34.6966 19.8083 37.5474 19.9629 40.7381C20.0334 42.1952 20.0035 43.5256 19.8725 44.7736H19.7261C17.0624 44.7736 14.5472 45.7403 12.5809 47.508H1.36741C0.612311 47.508 0.000223038 48.1202 0.000223038 48.8752V59.8126C0.000223038 60.5675 0.612311 61.1795 1.36741 61.1795ZM2.73459 50.2421H13.1252C13.4878 50.2421 13.8356 50.098 14.0919 49.8416C15.5971 48.3365 17.5979 47.5077 19.726 47.5077H21.3283C23.1108 47.5077 24.6313 48.6505 25.1957 50.2421H21.3283C20.5732 50.2421 19.9611 50.8543 19.9611 51.6093C19.9611 52.3642 20.5732 52.9764 21.3283 52.9764H29.5314C30.2853 52.9764 30.8986 53.5898 30.8986 54.3436V59.8124C30.8986 60.5662 30.2853 61.1795 29.5314 61.1795H19.726C17.6316 61.1795 15.5998 60.3536 14.0919 58.8458C13.8356 58.5893 13.4878 58.4452 13.1252 58.4452H2.73459V50.2421Z" fill="#E5EAEC"/>
<path d="M47.3042 18.7969C47.3042 18.0419 46.692 17.4297 45.937 17.4297H41.0347L41.4351 17.0292C41.969 16.4954 41.969 15.6296 41.4351 15.0956C40.9011 14.5619 40.0357 14.5619 39.5015 15.0956L36.7671 17.83C36.2257 18.3714 36.2447 19.2412 36.7671 19.7636L39.5015 22.498C40.0357 23.0319 40.901 23.0318 41.4351 22.498C41.969 21.9641 41.969 21.0984 41.4351 20.5644L41.0347 20.1639H45.937C46.6921 20.1641 47.3042 19.552 47.3042 18.7969Z" fill="#E5EAEC"/>
<path d="M64.8047 28.3672C65.5598 28.3672 66.1719 27.7551 66.1719 27C66.1719 26.2449 65.5598 25.6328 64.8047 25.6328C64.0496 25.6328 63.4375 26.2449 63.4375 27C63.4375 27.7551 64.0496 28.3672 64.8047 28.3672Z" fill="#E5EAEC"/>
</g>
<defs>
<clipPath id="clip0_469_5969">
<rect width="70" height="70" fill="white" transform="translate(0 0.203125)"/>
</clipPath>
</defs>
</svg>
