<svg width="70" height="71" viewBox="0 0 70 71" fill="none" xmlns="http://www.w3.org/2000/svg">
<g clip-path="url(#clip0_469_5964)">
<path d="M82.776 61.8833H56.6925C57.8319 60.4984 59.2401 58.6601 60.7097 56.4337C61.4566 55.302 62.1704 54.1422 62.8318 52.9862C63.2445 52.2643 62.9851 51.3493 62.2521 50.9426C61.5198 50.5363 60.5901 50.7918 60.1769 51.5135C59.6986 52.3503 59.1906 53.189 58.662 54.017L57.7181 53.9086C52.1807 53.0504 48.989 51.993 46.0346 48.4209C51.0863 43.8468 51.0148 38.719 50.5807 34.0343L52.9099 35.2436C55.7124 36.6984 59.179 35.6446 60.6585 32.8807C62.1371 30.1186 61.064 26.7055 58.259 25.2494C58.1219 25.178 58.2621 25.2436 54.6534 23.8524C56.6978 24.3452 58.83 24.2048 60.7839 23.4503C61.2255 23.6267 61.6675 23.8534 62.1034 24.1304C65.0333 25.9918 66.6647 29.3474 66.3611 32.8877C66.0141 36.9377 64.9634 41.1107 63.238 45.2913C62.9212 46.0591 63.2963 46.9342 64.0757 47.2461C64.8508 47.5563 65.7424 47.1929 66.0607 46.4211C67.9016 41.9599 69.0242 37.4916 69.3972 33.1399C69.7941 28.5093 67.6495 24.1072 63.7985 21.6375C65.9219 19.7972 67.2656 17.1038 67.2656 14.1057V12.0053C67.2656 11.2639 67.1811 10.542 67.0255 9.84604C70.4918 8.5968 71.4551 4.21615 68.8575 1.65766C66.5185 -0.645186 62.5592 -0.153291 60.8997 2.70606C59.7179 2.23297 58.4276 1.96992 57.0754 1.96992C51.4566 1.96992 46.8855 6.47179 46.8855 12.0053V14.1057C46.8855 16.7776 47.9533 19.2071 49.6884 21.0072C49.4915 21.2422 49.3055 21.4827 49.1322 21.7287L35.6169 16.5309C27.5498 13.4283 20.4067 13.3889 19.9777 13.3347C17.5505 13.2085 16.6576 16.4233 18.7983 17.5347L25.1911 20.8534C25.9357 21.2398 26.8569 20.9588 27.2492 20.2257C27.6416 19.4927 27.3562 18.5853 26.612 18.1989L23.5811 16.6256C27.3223 17.0664 30.9865 17.9714 34.5084 19.3259L56.9056 27.9397C58.1613 28.6359 58.6486 30.2008 57.9631 31.4812C57.2702 32.7759 55.6452 33.2716 54.3304 32.5888L32.9188 21.4733C32.1743 21.0868 31.253 21.3677 30.8607 22.101C30.4683 22.834 30.7537 23.7413 31.4979 24.1278L47.3579 32.3614C47.886 37.7971 48.4617 42.2305 43.824 46.3409L15.083 28.359L12.5191 26.1046C11.3099 25.0414 10.2293 23.8363 9.30712 22.5233L6.24847 18.1677C4.01734 14.9896 -0.969578 17.1847 -0.27611 20.8644L1.26967 29.0652C1.63692 31.0139 3.05473 32.6036 4.96959 33.214C5.81073 33.541 7.27851 33.7133 8.83425 35.0929L28.3251 53.117C31.6269 56.1704 33.4676 58.6007 35.8117 61.8831H-12.7758C-15.105 61.8833 -17 63.7495 -17 66.0433C-17 68.3372 -15.105 70.2031 -12.776 70.2031H82.776C85.1052 70.2031 87 68.3372 87 66.0433C87 63.7495 85.1052 61.8833 82.776 61.8833ZM49.9321 14.1059V12.0055C49.9321 11.7406 49.9484 11.4794 49.9776 11.2219H55.2841C56.0291 11.2219 56.6352 11.8188 56.6352 12.5526C56.6352 13.6082 57.0257 14.6254 57.7342 15.4169L61.4995 19.6225C56.8542 23.2436 49.9321 19.9908 49.9321 14.1059ZM66.7025 3.77947C67.749 4.81027 67.3385 6.57721 65.9276 7.0447C65.304 5.96949 64.486 5.01751 63.5185 4.23776C64.1598 3.07193 65.757 2.84829 66.7025 3.77947ZM57.0752 4.9707C61.0142 4.9707 64.2185 8.12631 64.2185 12.0055V14.1059C64.2185 15.2427 63.9417 16.3165 63.4533 17.2677L60.0195 13.4325C59.802 13.1893 59.6821 12.877 59.6821 12.5526C59.6821 10.1643 57.7092 8.22133 55.2841 8.22133H51.0585C52.329 6.26855 54.5504 4.9707 57.0752 4.9707ZM5.90763 30.3592C5.05755 30.0884 4.42827 29.3826 4.26536 28.5175L2.71958 20.3167C2.60928 19.732 3.41853 19.4131 3.74231 19.8742L6.80117 24.2298C7.86006 25.7379 9.10136 27.1218 10.4899 28.343L11.9699 29.6445L9.7085 31.9727C8.07985 30.8995 6.78472 30.6785 5.90763 30.3592ZM38.9394 61.0491C36.5326 57.6633 34.4469 54.6621 30.4108 50.9296L12.0255 33.9279L14.398 31.4854L42.8849 49.3085C44.7222 51.8004 46.702 53.5083 49.0953 54.6703C51.3359 55.7581 53.8023 56.3222 56.777 56.7995C55.073 59.1732 53.5624 60.9255 52.6922 61.8835H39.8715C39.5078 61.6771 39.1864 61.397 38.9394 61.0491ZM82.776 67.2025H-12.776C-13.4252 67.2025 -13.9531 66.6824 -13.9531 66.0433C-13.9531 65.404 -13.425 64.8839 -12.776 64.8839H82.776C83.425 64.8839 83.9531 65.404 83.9531 66.0433C83.9531 66.6824 83.425 67.2025 82.776 67.2025Z" fill="#E5EAEC"/>
</g>
<defs>
<clipPath id="clip0_469_5964">
<rect width="70" height="70" fill="white" transform="translate(0 0.203125)"/>
</clipPath>
</defs>
</svg>
