<svg width="40" height="41" viewBox="0 0 40 41" fill="none" xmlns="http://www.w3.org/2000/svg">
<path d="M30.6512 38.114C30.1391 38.0352 29.6664 38.37 29.5876 38.8821C29.5089 39.3942 29.8437 39.8668 30.3557 39.9456C30.3951 39.9456 30.4542 39.9653 30.4936 39.9653C30.9466 39.9653 31.3405 39.6305 31.3996 39.1775C31.498 38.6655 31.1632 38.1928 30.6512 38.114Z" fill="#023047"/>
<path d="M35.7718 34.4314C35.2597 34.3526 34.787 34.6874 34.7082 35.1995C34.6295 35.7115 34.9643 36.1842 35.4763 36.263C35.5157 36.263 35.5748 36.2827 35.6142 36.2827C35.8112 36.2827 35.9884 36.2236 36.1657 36.1054C36.3626 35.9676 36.5005 35.7509 36.5399 35.4949C36.6186 34.9828 36.2641 34.5102 35.7718 34.4314Z" fill="#023047"/>
<path d="M39.1006 28.7001C38.9627 28.5032 38.7461 28.3653 38.49 28.3259C37.978 28.2471 37.5053 28.5819 37.4265 29.094C37.3871 29.3303 37.4462 29.5864 37.5841 29.7833C37.722 29.9803 37.9386 30.1181 38.1946 30.1575C38.234 30.1575 38.2931 30.1772 38.3325 30.1772C38.7855 30.1772 39.1794 29.8424 39.2384 29.3894C39.2975 29.1334 39.2384 28.8971 39.1006 28.7001Z" fill="#023047"/>
<path d="M35.122 23.8749C33.3495 13.2397 27.126 9.87191 23.7976 8.8084C24.0536 8.15847 24.1915 7.42977 24.1915 6.68137C24.1915 3.39235 21.513 0.713867 18.2239 0.713867C14.9349 0.713867 12.2564 3.39235 12.2564 6.68137C12.2564 7.6858 12.5125 8.63116 12.9458 9.45833C11.5474 10.0295 8.23871 11.7429 5.20572 15.8197C3.09839 18.6558 2.64541 21.1767 3.84679 23.3037C4.49671 24.446 6.4268 26.4943 7.03734 27.1442C7.01764 27.3805 6.99795 27.6169 6.99795 27.8532C6.99795 29.3894 7.52971 30.8074 8.43566 31.93C7.90391 32.2057 7.37214 32.5012 6.87978 32.7769C4.08312 34.3131 0.912273 36.0462 0.892578 40.1427C0.892578 40.4578 1.12892 40.6942 1.44403 40.6942C1.73945 40.6942 1.99548 40.4381 1.99548 40.1427C2.01518 36.9325 4.14221 35.5342 7.41154 33.7419C7.98268 33.4268 8.61291 33.092 9.24314 32.7572C10.3854 33.7419 11.8625 34.3525 13.4972 34.3525C15.3682 34.3525 17.0423 33.5647 18.2239 32.3042C18.7557 32.5209 19.2481 32.6981 19.6617 32.836C21.1191 33.3086 22.025 32.3239 22.3205 31.7331L25.0186 27.1245C25.1171 26.9472 25.1171 26.7503 25.0186 26.573C24.9202 26.3958 24.7429 26.2973 24.546 26.2973H19.8192C19.5435 25.1747 18.9723 24.1703 18.1846 23.3825L28.1698 22.772C28.7606 22.772 29.3121 23.0871 29.6469 23.5794C29.9817 24.0915 30.0211 24.702 29.7848 25.2535L24.4475 35.672C24.3096 35.9084 23.0295 38.1535 22.9901 40.1427C22.9901 40.4578 23.2264 40.6942 23.5415 40.7139C23.8369 40.7139 24.093 40.4775 24.093 40.1624C24.1127 38.4096 25.3731 36.2432 25.3928 36.2235C25.3928 36.2235 25.4125 36.2038 25.4125 36.1841L30.6316 26.0019C31.1043 26.5928 31.833 26.9669 32.6405 26.9669C32.798 26.9669 32.9753 26.9472 33.1329 26.9276C34.4721 26.6124 35.3584 25.2929 35.122 23.8749ZM18.2042 1.81677C20.8827 1.81677 23.0688 4.00289 23.0688 6.68137C23.0688 9.35985 20.8827 11.546 18.2042 11.546C15.5258 11.546 13.3397 9.35985 13.3397 6.68137C13.3593 4.00289 15.5258 1.81677 18.2042 1.81677ZM23.5218 27.3608L21.2963 31.1422C21.2963 31.1619 21.2766 31.1816 21.2766 31.1816C21.2372 31.2604 20.863 32.0285 19.9571 31.7331C19.642 31.6346 19.2875 31.4967 18.8936 31.3589C19.5632 30.3347 19.9374 29.1334 19.9374 27.8335C19.9374 27.676 19.9374 27.5184 19.9177 27.3608H23.5218ZM13.4578 33.2299C10.4839 33.2299 8.08116 30.8074 8.08116 27.8532C8.08116 24.8793 10.5036 22.4765 13.4578 22.4765C16.4317 22.4765 18.8345 24.899 18.8345 27.8532C18.8542 30.8074 16.4317 33.2299 13.4578 33.2299ZM28.1107 21.61C28.091 21.61 28.091 21.61 28.0713 21.61L23.5021 21.8857C23.1673 19.1678 23.6597 17.4544 24.3293 16.9226C24.6247 16.6863 24.9792 16.6666 25.4322 16.8439C27.2441 17.5726 28.4061 18.6361 29.3712 21.8857C28.9773 21.7085 28.544 21.61 28.1107 21.61ZM32.8768 25.7853C32.7784 25.805 32.6799 25.805 32.6011 25.805C31.9118 25.805 31.3012 25.3126 31.1634 24.6233C30.0999 19.1481 28.8197 17.0211 25.8655 15.8197C24.8217 15.4061 24.093 15.7213 23.6597 16.0561C22.5371 16.9423 22.0644 19.1284 22.3992 21.9645L16.8453 22.2993C15.8606 21.6888 14.6986 21.3343 13.4578 21.3343C11.9807 21.3343 10.6218 21.8266 9.53856 22.6538C8.6523 21.4721 9.0462 20.4677 9.40071 19.9359C10.1885 18.7542 11.0944 17.7104 11.1141 17.6907C11.3111 17.4544 11.2914 17.0999 11.0551 16.9029C10.8187 16.706 10.4642 16.7257 10.2673 16.962C10.2279 17.0014 9.30223 18.0649 8.47505 19.3057C8.14024 19.8178 7.21459 21.5115 8.71139 23.4022C8.08116 24.0915 7.58879 24.899 7.29337 25.805C6.50558 24.9384 5.24512 23.5401 4.79214 22.7326C3.8271 21.0388 4.26038 18.9315 6.09199 16.4697C9.10528 12.3928 12.4928 10.8173 13.5563 10.4037C14.6592 11.7626 16.3332 12.6489 18.2042 12.6489C20.351 12.6489 22.2417 11.5066 23.2855 9.79313C26.3185 10.7188 32.3057 13.7912 34.0191 24.0521C34.1767 24.8793 33.6646 25.6277 32.8768 25.7853Z" fill="#023047"/>
</svg>
