<svg width="70" height="71" viewBox="0 0 70 71" fill="none" xmlns="http://www.w3.org/2000/svg">
<g clip-path="url(#clip0_469_6020)">
<path d="M15.2402 30.765C15.3659 30.4592 15.367 30.1163 15.243 29.8097C15.1191 29.5031 14.8801 29.2573 14.5772 29.1247C14.2743 28.9921 13.9315 28.9834 13.6222 29.1004C13.3129 29.2174 13.0618 29.4508 12.9224 29.7507C12.8564 29.8989 11.3397 33.4442 13.9325 38.9934C13.9738 39.1007 15.9954 44.3648 17.9414 50.6182C18.056 51.7825 19.0743 63.0085 16.2064 67.6305C16.0901 67.8224 16.0267 68.0417 16.0225 68.2661C16.0183 68.4905 16.0735 68.712 16.1825 68.9082C16.2915 69.1044 16.4504 69.2682 16.6432 69.3832C16.836 69.4981 17.0557 69.5601 17.2801 69.5628C19.5444 69.3477 20.3489 62.8837 20.5809 60.3876C21.2911 63.1235 21.5812 65.9514 21.4413 68.7745C21.4198 68.9395 21.431 69.1071 21.4744 69.2678C21.5178 69.4284 21.5925 69.5789 21.6941 69.7107C21.7957 69.8424 21.9224 69.9528 22.0668 70.0355C22.2111 70.1182 22.3704 70.1716 22.5355 70.1927C22.7005 70.2137 22.8681 70.202 23.0286 70.1582C23.1892 70.1143 23.3394 70.0393 23.4709 69.9372C23.6024 69.8352 23.7124 69.7083 23.7947 69.5637C23.877 69.4191 23.93 69.2596 23.9506 69.0945C25.0131 60.7771 16.6494 39.0045 16.259 38.0026C14.1684 33.5226 15.1852 30.9003 15.2402 30.765Z" fill="#E5EAEC"/>
<path d="M62.0254 20.4496L51.6206 16.0586C43.1729 13.0174 44.9291 2.14567 45.0082 1.68422C45.0655 1.35359 44.9891 1.01376 44.7958 0.739484C44.6025 0.465206 44.3081 0.27895 43.9775 0.221689C43.6469 0.164427 43.307 0.240851 43.0328 0.434149C42.7585 0.627446 42.5722 0.921783 42.515 1.25241C41.71 5.88059 42.3982 15.4279 50.6995 18.4147L61.037 22.7791C63.5667 23.9661 65.635 25.9532 66.9224 28.4334C68.2097 30.9136 68.6443 33.7487 68.159 36.5006C67.8815 40.3979 67.5882 48.0394 65.6172 51.3699C65.4111 51.6286 65.3144 51.9577 65.3479 52.2867C65.3815 52.6157 65.5425 52.9185 65.7966 53.1303C66.0507 53.342 66.3776 53.4459 66.7072 53.4196C67.0369 53.3932 67.3432 53.2389 67.5605 52.9895C67.6825 52.8339 67.7938 52.6702 67.8935 52.4995C68.2546 56.5049 68.324 61.8629 66.7944 65.6467C66.6748 65.9565 66.6818 66.301 66.8139 66.6058C66.946 66.9106 67.1927 67.1512 67.5006 67.2757C67.8085 67.4002 68.1531 67.3987 68.4599 67.2714C68.7668 67.1442 69.0112 66.9014 69.1406 66.5955C71.9597 59.621 70.0198 48.5837 69.6643 46.734C70.2027 43.4223 70.5404 40.081 70.6757 36.7286C71.1855 33.4448 70.6183 30.0844 69.0589 27.1499C67.4996 24.2154 65.032 21.8648 62.0254 20.4496Z" fill="#E5EAEC"/>
<path d="M56.2916 29.1136C55.9861 29.247 55.745 29.495 55.6203 29.8042C55.4956 30.1134 55.497 30.4592 55.6245 30.7673C55.6695 30.8766 56.708 33.5008 54.5669 38.0938L54.0751 39.3787C54.0152 39.5339 53.9865 39.6993 53.9906 39.8656C53.9947 40.0319 54.0316 40.1957 54.099 40.3477C54.1665 40.4998 54.2633 40.637 54.3838 40.7516C54.5044 40.8662 54.6463 40.9559 54.8016 41.0156C54.9568 41.0752 55.1223 41.1037 55.2886 41.0994C55.4549 41.0951 55.6187 41.058 55.7706 40.9903C55.9225 40.9226 56.0596 40.8256 56.174 40.7049C56.2885 40.5842 56.378 40.4421 56.4374 40.2868L56.8964 39.0779C59.5268 33.4446 58.009 29.9018 57.9429 29.7535C57.8076 29.4508 57.5582 29.2137 57.2489 29.0938C56.9397 28.974 56.5956 28.9811 56.2916 29.1136Z" fill="#E5EAEC"/>
<path d="M52.9243 50.6069C53.5153 48.7045 54.1172 46.9001 54.6585 45.3008C54.7651 44.9832 54.7415 44.6363 54.5927 44.3362C54.4439 44.036 54.1822 43.8071 53.8649 43.6997C53.5476 43.5922 53.2006 43.615 52.9001 43.763C52.5995 43.911 52.3699 44.1721 52.2616 44.4891C50.1916 50.7172 44.0149 69.6754 48.1693 70.1982C48.3491 70.198 48.5269 70.1595 48.6907 70.0854C48.8546 70.0112 49.0008 69.9031 49.1197 69.7681C49.2385 69.6331 49.3273 69.4744 49.3802 69.3025C49.433 69.1306 49.4487 68.9494 49.4262 68.771C49.2896 65.9708 49.5803 63.1662 50.2882 60.4536C50.3902 63.4205 51.1483 66.3279 52.5081 68.9668C52.5949 69.1097 52.7092 69.2339 52.8443 69.3323C52.9794 69.4308 53.1326 69.5015 53.2952 69.5403C53.4578 69.5792 53.6264 69.5855 53.7914 69.5588C53.9564 69.5321 54.1145 69.4729 54.2565 69.3848C54.3986 69.2966 54.5217 69.1812 54.6189 69.0452C54.716 68.9092 54.7852 68.7552 54.8226 68.5923C54.8599 68.4294 54.8645 68.2606 54.8363 68.0959C54.808 67.9312 54.7474 67.7736 54.6579 67.6325C51.7743 62.9852 52.8191 51.6656 52.9243 50.6069Z" fill="#E5EAEC"/>
<path d="M26.0511 24.2438C26.3031 24.4603 26.6301 24.5689 26.9616 24.5462C27.293 24.5236 27.6022 24.3715 27.8225 24.1229C28.0428 23.8742 28.1564 23.5489 28.1389 23.2171C28.1214 22.8854 27.9741 22.5739 27.7288 22.3498L22.1862 17.4431C28.559 13.7084 29.0811 5.45776 28.3497 1.25243C28.2876 0.926317 28.0999 0.637653 27.827 0.448676C27.554 0.259698 27.2178 0.185545 26.8907 0.242204C26.5636 0.298863 26.2718 0.481796 26.0784 0.751561C25.8849 1.02133 25.8052 1.35631 25.8564 1.6843C25.9323 2.12663 27.5238 12.119 20.1565 15.6464L12.658 9.0082C13.0996 8.04352 13.1793 6.95211 12.8826 5.93348C12.5859 4.91484 11.9325 4.03701 11.0418 3.46044C10.1512 2.88386 9.08281 2.64704 8.03196 2.79327C6.98111 2.9395 6.01797 3.45901 5.31859 4.25684C4.61921 5.05468 4.2303 6.07755 4.22294 7.1385C4.21557 8.19945 4.59025 9.22762 5.2785 10.0351C5.96674 10.8425 6.92257 11.3754 7.97129 11.5362C9.02001 11.697 10.0916 11.475 10.9901 10.9108L17.591 16.7546L8.83928 20.4503C8.73612 20.4935 -1.45861 24.9481 0.17781 36.6057C0.316718 39.9986 0.658272 43.3801 1.20065 46.7323C0.845974 48.5777 -1.09568 59.6192 1.72404 66.5956C1.85423 66.9004 2.09878 67.1419 2.40515 67.2684C2.71153 67.3948 3.05527 67.396 3.36252 67.2717C3.66978 67.1475 3.91602 66.9076 4.04835 66.6037C4.18068 66.2999 4.18853 65.9562 4.07021 65.6466C2.54064 61.863 2.61004 56.5049 2.97111 52.4995C3.80958 54.3785 6.41506 53.1014 5.24773 51.3698C3.26441 47.9672 2.98652 40.3822 2.69434 36.3778C2.22708 33.6432 2.67187 30.8308 3.96019 28.3739C5.24852 25.917 7.3089 23.9518 9.82397 22.7811L19.6904 18.6131L26.0511 24.2438ZM10.0874 8.38574C9.88339 8.62917 9.62126 8.81719 9.32528 8.93239C9.0293 9.04759 8.70903 9.08624 8.39414 9.04477C8.07926 9.00329 7.77992 8.88304 7.52386 8.69513C7.2678 8.50722 7.0633 8.25774 6.92928 7.96979C6.79527 7.68184 6.73608 7.36473 6.7572 7.04782C6.77832 6.73091 6.87906 6.42446 7.05009 6.15683C7.22113 5.88921 7.45693 5.66907 7.73565 5.5168C8.01438 5.36453 8.32703 5.28505 8.64464 5.28572C9.00194 5.2901 9.35075 5.39532 9.65087 5.58927C9.95099 5.78322 10.1902 6.05801 10.341 6.38197C10.4918 6.70594 10.548 7.06591 10.5031 7.42042C10.4582 7.77493 10.3141 8.10955 10.0874 8.38574Z" fill="#E5EAEC"/>
<path d="M31.6363 23.7519C31.7582 22.1519 29.8232 18.7277 28.0929 20.5302C27.9948 20.6643 27.924 20.8165 27.8847 20.9779C27.8454 21.1393 27.8383 21.3069 27.8637 21.4711C27.8892 21.6353 27.9468 21.7929 28.0332 21.9348C28.1196 22.0768 28.2331 22.2003 28.3672 22.2984C28.587 22.4587 28.7677 22.6668 28.8954 22.907C29.0232 23.1472 29.0947 23.4133 29.1047 23.6852C29.1147 23.9571 29.0629 24.2277 28.9532 24.4767C28.8434 24.7257 28.6786 24.9465 28.4711 25.1225C28.2636 25.2985 28.0189 25.4252 27.7554 25.4929C27.4919 25.5607 27.2164 25.5677 26.9498 25.5135C26.6831 25.4594 26.4323 25.3454 26.2161 25.1802C25.9999 25.0151 25.824 24.803 25.7016 24.5599C25.5477 24.2652 25.284 24.0429 24.9675 23.9411C24.651 23.8392 24.3071 23.866 24.0102 24.0157C23.7133 24.1654 23.4873 24.4259 23.3809 24.7409C23.2746 25.0559 23.2965 25.4001 23.4419 25.6991C23.8873 26.5588 24.6073 27.2449 25.4875 27.6483C26.3677 28.0517 27.3575 28.1493 28.2995 27.9254C29.2415 27.7016 30.0816 27.1692 30.6862 26.413C31.2909 25.6568 31.6253 24.7201 31.6363 23.7519Z" fill="#E5EAEC"/>
<path d="M52.6565 28.9201C52.6462 27.7789 52.1856 26.6881 51.375 25.8848C50.5644 25.0815 49.4694 24.6308 48.3282 24.6309C47.187 24.6309 46.092 25.0816 45.2814 25.8849C44.4709 26.6881 44.0103 27.779 44 28.9202C44.0103 30.0613 44.4709 31.1522 45.2815 31.9555C46.0921 32.7588 47.1871 33.2094 48.3283 33.2094C49.4695 33.2094 50.5645 32.7587 51.3751 31.9554C52.1857 31.1521 52.6462 30.0612 52.6565 28.9201ZM46.5303 28.9201C46.5372 28.4478 46.7296 27.9971 47.0661 27.6655C47.4025 27.334 47.8559 27.1481 48.3283 27.1481C48.8007 27.1481 49.2541 27.334 49.5905 27.6656C49.9269 27.9972 50.1194 28.4478 50.1262 28.9202C50.1188 29.3921 49.9261 29.8422 49.5897 30.1734C49.2534 30.5045 48.8003 30.6901 48.3283 30.6901C47.8562 30.69 47.4032 30.5044 47.0668 30.1733C46.7304 29.8422 46.5377 29.392 46.5303 28.9201Z" fill="#E5EAEC"/>
<path d="M32.9064 37.5068C31.7653 37.5172 30.6744 37.9777 29.8711 38.7883C29.0678 39.5989 28.6172 40.694 28.6172 41.8351C28.6172 42.9763 29.0679 44.0713 29.8712 44.8819C30.6745 45.6925 31.7654 46.153 32.9065 46.1634C34.0477 46.153 35.1385 45.6925 35.9418 44.8819C36.7451 44.0713 37.1958 42.9762 37.1957 41.8351C37.1957 40.6939 36.7451 39.5989 35.9418 38.7883C35.1385 37.9777 34.0476 37.5171 32.9064 37.5068ZM32.9064 43.6331C32.4341 43.6262 31.9835 43.4337 31.6519 43.0973C31.3203 42.7608 31.1344 42.3074 31.1344 41.8351C31.1344 41.3627 31.3203 40.9093 31.6519 40.5729C31.9835 40.2364 32.4342 40.044 32.9065 40.0371C33.3788 40.044 33.8295 40.2365 34.1611 40.5729C34.4926 40.9094 34.6785 41.3628 34.6785 41.8351C34.6785 42.3075 34.4926 42.7609 34.161 43.0973C33.8294 43.4338 33.3787 43.6262 32.9064 43.6331Z" fill="#E5EAEC"/>
<path d="M32.9057 56.1338C31.7647 56.1443 30.674 56.605 29.8709 57.4155C29.0677 58.2261 28.6172 59.321 28.6172 60.4621C28.6172 61.6032 29.0678 62.6981 29.8709 63.5086C30.6741 64.3192 31.7648 64.7798 32.9058 64.7903C34.0469 64.7798 35.1376 64.3192 35.9407 63.5086C36.7438 62.698 37.1944 61.6031 37.1944 60.462C37.1944 59.3209 36.7438 58.226 35.9406 57.4155C35.1375 56.6049 34.0468 56.1443 32.9057 56.1338ZM32.9057 62.26C32.4334 62.2531 31.9828 62.0607 31.6512 61.7242C31.3196 61.3878 31.1337 60.9344 31.1338 60.462C31.1338 59.9897 31.3197 59.5363 31.6512 59.1998C31.9828 58.8634 32.4335 58.671 32.9058 58.6641C33.3781 58.671 33.8288 58.8634 34.1604 59.1999C34.4919 59.5363 34.6778 59.9897 34.6778 60.4621C34.6778 60.9345 34.4919 61.3879 34.1603 61.7243C33.8287 62.0607 33.3781 62.2532 32.9057 62.26Z" fill="#E5EAEC"/>
</g>
<defs>
<clipPath id="clip0_469_6020">
<rect width="70" height="70" fill="white" transform="translate(0 0.203125)"/>
</clipPath>
</defs>
</svg>
