<svg width="70" height="71" viewBox="0 0 70 71" fill="none" xmlns="http://www.w3.org/2000/svg">
<g clip-path="url(#clip0_469_5984)">
<path d="M15.0557 30.765C15.1799 30.4592 15.1809 30.1163 15.0585 29.8097C14.9361 29.5031 14.7 29.2573 14.4007 29.1247C14.1015 28.9921 13.7628 28.9834 13.4573 29.1004C13.1518 29.2174 12.9036 29.4508 12.766 29.7507C12.7007 29.8989 11.2024 33.4442 13.7638 38.9934C13.8046 39.1007 15.8017 44.3648 17.7242 50.6181C17.8374 51.7824 18.8434 63.0085 16.0102 67.6304C15.8954 67.8224 15.8327 68.0417 15.8285 68.2661C15.8244 68.4904 15.8789 68.712 15.9866 68.9081C16.0943 69.1043 16.2513 69.2682 16.4417 69.3831C16.6321 69.4981 16.8492 69.56 17.0709 69.5627C19.3078 69.3476 20.1026 62.8837 20.3317 60.3876C21.0334 63.1235 21.32 65.9514 21.1817 68.7745C21.1605 68.9395 21.1716 69.1071 21.2145 69.2677C21.2573 69.4284 21.3311 69.5789 21.4315 69.7106C21.5319 69.8423 21.657 69.9527 21.7996 70.0354C21.9423 70.1181 22.0996 70.1716 22.2627 70.1926C22.4257 70.2137 22.5913 70.2019 22.7499 70.1581C22.9084 70.1143 23.0569 70.0392 23.1868 69.9372C23.3166 69.8352 23.4253 69.7082 23.5067 69.5636C23.588 69.419 23.6403 69.2596 23.6606 69.0945C24.7103 60.7771 16.4478 39.0045 16.0621 38.0026C13.9969 33.5226 15.0014 30.9003 15.0557 30.765Z" fill="#E5EAEC"/>
<path d="M61.2744 20.4496L50.9956 16.0586C42.6501 13.0174 44.3851 2.14567 44.4632 1.68422C44.5198 1.35359 44.4443 1.01376 44.2533 0.739483C44.0624 0.465206 43.7716 0.27895 43.445 0.221689C43.1184 0.164427 42.7826 0.240851 42.5117 0.434148C42.2407 0.627446 42.0567 0.921782 42.0002 1.25241C41.205 5.88058 41.8848 15.4279 50.0857 18.4147L60.298 22.7791C62.7971 23.9661 64.8404 25.9532 66.1121 28.4334C67.3839 30.9135 67.8132 33.7487 67.3338 36.5006C67.0597 40.3978 66.7699 48.0394 64.8228 51.3699C64.6191 51.6285 64.5237 51.9576 64.5568 52.2866C64.5899 52.6157 64.749 52.9185 65 53.1302C65.251 53.342 65.5739 53.4458 65.8996 53.4195C66.2253 53.3932 66.5279 53.2388 66.7425 52.9894C66.8631 52.8339 66.973 52.6702 67.0716 52.4994C67.4283 56.5049 67.4968 61.8629 65.9857 65.6466C65.8676 65.9565 65.8745 66.301 66.005 66.6057C66.1355 66.9105 66.3792 67.1511 66.6834 67.2756C66.9876 67.4002 67.328 67.3986 67.6311 67.2714C67.9342 67.1441 68.1757 66.9013 68.3036 66.5954C71.0885 59.6209 69.1721 48.5837 68.8209 46.734C69.3527 43.4222 69.6864 40.081 69.8201 36.7285C70.3237 33.4448 69.7633 30.0843 68.2228 27.1499C66.6824 24.2154 64.2447 21.8647 61.2744 20.4496Z" fill="#E5EAEC"/>
<path d="M55.6104 29.1136C55.3086 29.247 55.0705 29.495 54.9472 29.8042C54.824 30.1134 54.8255 30.4592 54.9514 30.7673C54.9959 30.8766 56.0218 33.5008 53.9066 38.0938L53.4208 39.3787C53.3616 39.5339 53.3332 39.6993 53.3373 39.8656C53.3413 40.0319 53.3777 40.1957 53.4444 40.3477C53.511 40.4997 53.6067 40.637 53.7257 40.7516C53.8448 40.8662 53.9851 40.9559 54.1385 41.0155C54.2918 41.0752 54.4553 41.1037 54.6196 41.0994C54.7838 41.095 54.9456 41.058 55.0957 40.9903C55.2458 40.9226 55.3812 40.8256 55.4943 40.7049C55.6073 40.5842 55.6957 40.4421 55.7545 40.2868L56.2079 39.0779C58.8064 33.4446 57.307 29.9018 57.2417 29.7535C57.108 29.4508 56.8616 29.2137 56.5562 29.0938C56.2507 28.974 55.9108 28.9811 55.6104 29.1136Z" fill="#E5EAEC"/>
<path d="M52.2843 50.6059C52.8681 48.7035 53.4628 46.8991 53.9975 45.2998C54.1029 44.9823 54.0795 44.6354 53.9325 44.3352C53.7855 44.0351 53.527 43.8062 53.2135 43.6987C52.9 43.5912 52.5573 43.614 52.2604 43.762C51.9635 43.91 51.7366 44.1711 51.6297 44.4881C49.5846 50.7162 43.4828 69.6744 47.5868 70.1972C47.7645 70.197 47.9401 70.1585 48.102 70.0844C48.2639 70.0102 48.4083 69.9021 48.5257 69.7671C48.6432 69.6321 48.7309 69.4734 48.7831 69.3015C48.8353 69.1296 48.8508 68.9484 48.8285 68.77C48.6936 65.9698 48.9808 63.1652 49.6801 60.4526C49.7808 63.4195 50.5298 66.3269 51.8732 68.9658C51.9589 69.1087 52.0718 69.2329 52.2052 69.3313C52.3387 69.4298 52.4901 69.5005 52.6507 69.5393C52.8113 69.5782 52.9779 69.5845 53.1409 69.5578C53.304 69.5311 53.4601 69.4719 53.6004 69.3838C53.7407 69.2956 53.8624 69.1802 53.9584 69.0442C54.0543 68.9081 54.1227 68.7542 54.1596 68.5913C54.1965 68.4284 54.2011 68.2596 54.1731 68.0949C54.1452 67.9301 54.0853 67.7726 53.9969 67.6315C51.1482 62.9842 52.1804 51.6646 52.2843 50.6059Z" fill="#E5EAEC"/>
<path d="M25.7358 24.2448C25.9847 24.4612 26.3078 24.5698 26.6352 24.5472C26.9627 24.5245 27.2681 24.3725 27.4857 24.1238C27.7033 23.8751 27.8156 23.5498 27.7983 23.2181C27.781 22.8864 27.6355 22.5748 27.3932 22.3507L21.9177 17.4441C28.2133 13.7094 28.7291 5.45873 28.0065 1.25341C27.9452 0.927293 27.7598 0.638629 27.4901 0.449652C27.2205 0.260675 26.8883 0.186522 26.5652 0.243181C26.2421 0.299839 25.9539 0.482772 25.7627 0.752537C25.5716 1.0223 25.4929 1.35729 25.5435 1.68528C25.6184 2.1276 27.1907 12.12 19.9126 15.6474L12.5048 9.00917C12.9411 8.04448 13.0198 6.95308 12.7267 5.93445C12.4335 4.91582 11.788 4.03799 10.9082 3.46141C10.0283 2.88483 8.97288 2.64802 7.93474 2.79424C6.89661 2.94047 5.94513 3.45998 5.25422 4.25782C4.5633 5.05565 4.1791 6.07852 4.17182 7.13947C4.16455 8.20042 4.5347 9.22859 5.21461 10.036C5.89452 10.8435 6.83878 11.3763 7.87481 11.5371C8.91084 11.6979 9.96943 11.476 10.8571 10.9118L17.3781 16.7555L8.73229 20.4512C8.63038 20.4945 -1.44096 24.9491 0.175657 36.6066C0.312884 39.9995 0.650305 43.3811 1.18611 46.7332C0.835735 48.5787 -1.08242 59.6202 1.70317 66.5965C1.83178 66.9013 2.07338 67.1428 2.37604 67.2693C2.67871 67.3957 3.01829 67.3969 3.32183 67.2726C3.62536 67.1484 3.86863 66.9085 3.99935 66.6046C4.13008 66.3008 4.13783 65.9571 4.02095 65.6475C2.50989 61.8639 2.57845 56.5058 2.93515 52.5004C3.76347 54.3795 6.33741 53.1023 5.18421 51.3707C3.2249 47.9681 2.95037 40.3831 2.66172 36.3787C2.20013 33.6441 2.63953 30.8318 3.91226 28.3749C5.18499 25.918 7.22044 23.9528 9.70507 22.782L19.4521 18.6141L25.7358 24.2448ZM9.9653 8.38671C9.76376 8.63014 9.50481 8.81816 9.21241 8.93336C8.92001 9.04856 8.60362 9.08721 8.29255 9.04574C7.98147 9.00426 7.68576 8.884 7.4328 8.6961C7.17984 8.50819 6.9778 8.25871 6.84541 7.97076C6.71302 7.68281 6.65455 7.3657 6.67541 7.04879C6.69628 6.73188 6.7958 6.42543 6.96476 6.1578C7.13373 5.89018 7.36667 5.67004 7.64203 5.51777C7.91738 5.3655 8.22624 5.28602 8.54 5.28669C8.89299 5.29107 9.23757 5.39629 9.53406 5.59024C9.83054 5.78419 10.0669 6.05898 10.2158 6.38294C10.3648 6.70691 10.4203 7.06688 10.376 7.42139C10.3316 7.77589 10.1893 8.11052 9.9653 8.38671Z" fill="#E5EAEC"/>
<path d="M31.2544 23.7529C31.3747 22.1529 29.4632 18.7287 27.7538 20.5312C27.6569 20.6653 27.587 20.8174 27.5481 20.9789C27.5093 21.1403 27.5023 21.3079 27.5274 21.4721C27.5526 21.6363 27.6095 21.7939 27.6948 21.9358C27.7802 22.0777 27.8923 22.2013 28.0248 22.2993C28.242 22.4596 28.4204 22.6677 28.5466 22.908C28.6728 23.1482 28.7435 23.4143 28.7534 23.6862C28.7633 23.9581 28.7121 24.2287 28.6037 24.4777C28.4952 24.7266 28.3324 24.9475 28.1274 25.1235C27.9225 25.2995 27.6807 25.4262 27.4204 25.4939C27.1601 25.5616 26.888 25.5687 26.6245 25.5145C26.3611 25.4604 26.1133 25.3464 25.8997 25.1812C25.6861 25.016 25.5123 24.8039 25.3915 24.5609C25.2394 24.2662 24.9789 24.0439 24.6662 23.942C24.3536 23.8402 24.0139 23.867 23.7206 24.0167C23.4273 24.1663 23.2039 24.4268 23.0989 24.7419C22.9938 25.0569 23.0155 25.4011 23.1591 25.7001C23.5991 26.5598 24.3104 27.2459 25.18 27.6493C26.0495 28.0527 27.0273 28.1502 27.9579 27.9264C28.8885 27.7026 29.7184 27.1702 30.3158 26.414C30.9131 25.6577 31.2434 24.721 31.2544 23.7529Z" fill="#E5EAEC"/>
<path d="M52.0205 28.9201C52.0103 27.7789 51.5553 26.6881 50.7545 25.8848C49.9537 25.0815 48.872 24.6308 47.7446 24.6309C46.6172 24.6309 45.5354 25.0816 44.7347 25.8849C43.9339 26.6881 43.4789 27.779 43.4688 28.9202C43.479 30.0613 43.934 31.1522 44.7347 31.9555C45.5355 32.7588 46.6173 33.2094 47.7447 33.2094C48.8721 33.2094 49.9538 32.7587 50.7546 31.9554C51.5553 31.1521 52.0103 30.0612 52.0205 28.9201ZM45.9684 28.9201C45.9752 28.4478 46.1653 27.9971 46.4977 27.6655C46.8301 27.334 47.278 27.1481 47.7447 27.1481C48.2113 27.1481 48.6592 27.334 48.9916 27.6656C49.3239 27.9972 49.5141 28.4478 49.5208 28.9202C49.5135 29.3921 49.3231 29.8422 48.9908 30.1734C48.6585 30.5045 48.2109 30.6901 47.7446 30.6901C47.2783 30.69 46.8307 30.5044 46.4984 30.1733C46.1661 29.8422 45.9757 29.392 45.9684 28.9201Z" fill="#E5EAEC"/>
<path d="M32.5078 37.5059C31.3805 37.5162 30.3028 37.9768 29.5093 38.7874C28.7157 39.598 28.2705 40.693 28.2705 41.8342C28.2705 42.9754 28.7157 44.0704 29.5093 44.8809C30.3029 45.6915 31.3806 46.1521 32.5079 46.1624C33.6352 46.152 34.7129 45.6915 35.5065 44.8809C36.3 44.0703 36.7452 42.9753 36.7452 41.8341C36.7452 40.6929 36.3 39.5979 35.5064 38.7873C34.7129 37.9767 33.6352 37.5162 32.5078 37.5059ZM32.5078 43.6321C32.0412 43.6252 31.596 43.4327 31.2685 43.0963C30.9409 42.7599 30.7573 42.3065 30.7573 41.8341C30.7573 41.3617 30.9409 40.9083 31.2685 40.5719C31.5961 40.2355 32.0413 40.043 32.5079 40.0362C32.9745 40.043 33.4197 40.2355 33.7473 40.5719C34.0748 40.9084 34.2585 41.3618 34.2584 41.8342C34.2584 42.3065 34.0748 42.7599 33.7472 43.0964C33.4196 43.4328 32.9744 43.6252 32.5078 43.6321Z" fill="#E5EAEC"/>
<path d="M32.5081 56.1338C31.3809 56.1443 30.3034 56.605 29.51 57.4155C28.7166 58.2261 28.2715 59.321 28.2715 60.4621C28.2715 61.6032 28.7166 62.6981 29.5101 63.5086C30.3035 64.3192 31.381 64.7798 32.5082 64.7903C33.6354 64.7798 34.713 64.3191 35.5064 63.5086C36.2998 62.698 36.7449 61.6031 36.7449 60.462C36.7449 59.3209 36.2997 58.226 35.5063 57.4155C34.7129 56.6049 33.6353 56.1443 32.5081 56.1338ZM32.5081 62.26C32.0415 62.2531 31.5963 62.0607 31.2688 61.7242C30.9412 61.3878 30.7576 60.9344 30.7576 60.462C30.7576 59.9896 30.9412 59.5363 31.2688 59.1998C31.5964 58.8634 32.0416 58.671 32.5082 58.6641C32.9748 58.671 33.42 58.8634 33.7476 59.1999C34.0751 59.5363 34.2588 59.9897 34.2587 60.4621C34.2587 60.9345 34.0751 61.3879 33.7475 61.7243C33.4199 62.0607 32.9747 62.2532 32.5081 62.26Z" fill="#E5EAEC"/>
</g>
<defs>
<clipPath id="clip0_469_5984">
<rect width="70" height="70" fill="white" transform="translate(0 0.203125)"/>
</clipPath>
</defs>
</svg>
