<svg width="70" height="71" viewBox="0 0 70 71" fill="none" xmlns="http://www.w3.org/2000/svg">
<path d="M68.7592 51.2075C68.564 51.2236 49.0592 52.7652 37.2159 50.1643C35.6407 49.8175 34.6368 50.2939 32.2078 51.4465C30.4403 52.2843 27.7666 53.5506 23.2991 55.2933C13.3135 59.1866 7.94121 59.4008 7.04509 57.8869C6.20434 56.4604 8.10732 50.1643 10.3542 45.1358C10.4138 45.0047 10.4469 44.8631 10.4515 44.7191C10.4562 44.5752 10.4324 44.4317 10.3814 44.297C10.3305 44.1623 10.2534 44.039 10.1546 43.9342C10.0559 43.8294 9.93734 43.7451 9.80589 43.6862C9.67444 43.6274 9.53265 43.5951 9.38868 43.5912C9.24471 43.5873 9.10139 43.6119 8.96696 43.6637C8.83254 43.7154 8.70966 43.7931 8.60539 43.8925C8.50112 43.9918 8.41753 44.1108 8.3594 44.2426C8.21369 44.5661 7.97035 45.1256 7.68185 45.8236C5.11443 44.0459 2.18565 41.3896 2.18565 39.7955C2.35322 39.0757 4.85652 36.9075 7.72265 34.9492C7.76862 35.0919 7.80321 35.2381 7.8261 35.3863C7.77283 35.8673 7.68813 36.3443 7.57256 36.8143C7.2229 37.8686 7.13145 38.9914 7.30591 40.0884C7.63813 41.0894 8.67559 41.442 9.43328 41.7014C9.54111 41.7378 9.68245 41.7859 9.79319 41.8267C10.0846 42.4751 10.6937 43.5359 11.1206 44.2513C11.1876 44.5209 11.3319 45.0673 11.5315 45.6312C11.6768 46.0432 11.9178 46.4148 12.2347 46.7155C12.5516 47.0162 12.9353 47.2374 13.3543 47.3608C13.7688 47.4849 14.207 47.5078 14.6321 47.4277C15.0573 47.3476 15.457 47.1668 15.7979 46.9003C16.0893 46.6716 16.4696 46.3568 16.8893 45.9926L16.133 48.8354C16.0899 48.9972 16.0846 49.1667 16.1174 49.3309C16.1503 49.4951 16.2206 49.6495 16.3227 49.7822C16.4248 49.915 16.5561 50.0224 16.7064 50.0962C16.8567 50.17 17.022 50.2083 17.1894 50.208C17.2992 50.2088 17.4084 50.192 17.5129 50.1584C20.2208 49.257 22.8019 48.0122 25.1933 46.4545C30.5278 42.9254 31.386 39.169 31.4195 39.0058C31.4815 38.7229 31.4286 38.427 31.2725 38.1831C31.1163 37.9392 30.8697 37.7673 30.5868 37.7053C30.3039 37.6433 30.008 37.6962 29.7641 37.8523C29.5202 38.0085 29.3483 38.2552 29.2863 38.538C29.098 39.141 28.8258 39.7144 28.4776 40.2414L24.0888 40.6508C23.9453 40.6574 23.8045 40.6922 23.6744 40.7533C23.5444 40.8143 23.4276 40.9003 23.3308 41.0065C23.1353 41.2208 23.0329 41.5041 23.0463 41.7939C23.0596 42.0838 23.1875 42.3564 23.4019 42.552C23.6163 42.7475 23.8995 42.8498 24.1894 42.8365H24.2914L26.5134 42.6296C25.7349 43.3757 24.8891 44.0483 23.9868 44.6389C22.3426 45.7091 20.6015 46.6223 18.7864 47.3666L19.8851 43.2416C21.3453 41.9968 22.5933 40.5229 23.5803 38.8775C23.8307 37.5905 23.6969 36.2583 23.1956 35.0468C23.074 34.7901 22.8573 34.5909 22.5913 34.4913C22.3253 34.3917 22.031 34.3996 21.7707 34.5132C21.5104 34.6269 21.3046 34.8374 21.1969 35.1002C21.0891 35.363 21.088 35.6574 21.1936 35.9211C21.4909 36.6752 21.5853 37.4941 21.4675 38.2962C19.3553 40.8104 17.0074 43.1168 14.4559 45.1839C14.3882 45.2373 14.3087 45.2737 14.224 45.2899C14.1393 45.3061 14.0519 45.3018 13.9692 45.2771C13.8821 45.2514 13.8024 45.2054 13.7365 45.1428C13.6706 45.0802 13.6206 45.0029 13.5904 44.9172C13.4403 44.4869 13.3124 44.0492 13.2072 43.6058C13.1807 43.4941 13.1375 43.387 13.079 43.2882C12.4961 42.2682 12.1668 41.614 11.7574 40.8956C11.5827 40.5914 11.3497 40.3247 11.0716 40.1109C10.7935 39.8971 10.4759 39.7404 10.1371 39.6498C9.87491 39.5694 9.61999 39.467 9.375 39.3438C9.43139 38.6511 9.54346 37.964 9.71013 37.2893C9.89849 36.6136 9.99649 35.9159 10.0016 35.2144C9.76055 34.0317 9.39975 32.8765 8.92476 31.7669C8.53571 30.6944 8.03884 29.3189 7.43414 27.566C7.37003 27.3781 7.32631 27.1887 7.27823 26.9992C9.29923 28.1037 12.4233 28.0702 15.6784 27.7759C19.1492 27.4655 24.0947 27.2105 26.955 28.57C27.0846 28.6316 27.2251 28.6671 27.3684 28.6744C27.5118 28.6817 27.6552 28.6607 27.7904 28.6126C27.9257 28.5645 28.0501 28.4903 28.1566 28.3941C28.2632 28.2979 28.3497 28.1816 28.4113 28.052C28.4729 27.9224 28.5084 27.7818 28.5157 27.6385C28.523 27.4951 28.5021 27.3518 28.4539 27.2165C28.4058 27.0813 28.3316 26.9569 28.2354 26.8503C28.1392 26.7438 28.023 26.6572 27.8933 26.5956C25.3128 25.3702 21.4821 25.0584 15.4817 25.599C8.14812 26.2547 7.36128 24.7349 7.20829 23.2545C6.99409 21.1752 9.63291 18.4198 10.6675 17.5324C10.8319 17.3922 10.9506 17.2059 11.0084 16.9977C11.2515 16.2689 11.6412 15.5975 12.1537 15.0252C12.6662 14.4528 13.2905 13.9915 13.9882 13.6697C15.1966 13.1372 16.4938 12.8348 17.8131 12.7779C19.0296 14.5331 20.878 15.7497 22.9712 16.173C28.4966 17.614 29.3184 19.0245 29.4393 19.4223C29.6224 20.0708 29.6841 20.7476 29.6214 21.4185C28.9129 21.1017 28.1825 20.8363 27.4358 20.6244C25.6662 20.1514 23.8598 19.8292 22.0358 19.6613C20.7142 19.4937 19.1638 19.2999 17.2608 18.9968C15.7934 18.8018 14.3713 18.3521 13.0586 17.6679C12.9342 17.5966 12.797 17.5504 12.6547 17.5321C12.5125 17.5137 12.3681 17.5236 12.2297 17.561C12.0912 17.5985 11.9616 17.6629 11.848 17.7505C11.7345 17.8381 11.6393 17.9472 11.5679 18.0716C11.4966 18.1959 11.4504 18.3332 11.432 18.4754C11.4137 18.6176 11.4236 18.7621 11.461 18.9005C11.4985 19.0389 11.5629 19.1686 11.6505 19.2821C11.7381 19.3956 11.8472 19.4908 11.9716 19.5622C13.5111 20.3839 15.1856 20.9228 16.9155 21.1533C18.8491 21.4622 20.4213 21.6604 21.7633 21.8294C23.4653 21.9859 25.1515 22.2822 26.8049 22.7154C29.365 23.492 30.3617 24.1958 30.4782 25.3177C30.4842 25.9948 30.3314 26.6638 30.032 27.2711C29.7326 27.8785 29.2951 28.4072 28.7545 28.8148C28.6044 28.9232 28.4843 29.0679 28.4054 29.2354C28.3265 29.4028 28.2914 29.5876 28.3033 29.7723C28.3153 29.9571 28.3739 30.1358 28.4737 30.2917C28.5735 30.4476 28.7112 30.5756 28.874 30.6639L31.3117 31.9752C31.4712 32.0609 31.6494 32.106 31.8304 32.1064C31.8836 32.1061 31.9366 32.1022 31.9892 32.0947L35.0492 31.643C35.1911 31.6221 35.3276 31.5734 35.4508 31.4997C35.5739 31.426 35.6813 31.3287 35.7669 31.2135C35.8525 31.0983 35.9146 30.9674 35.9495 30.8282C35.9845 30.689 35.9917 30.5443 35.9708 30.4023C35.9498 30.2603 35.9011 30.1239 35.8274 30.0007C35.7537 29.8775 35.6565 29.7701 35.5413 29.6845C35.4261 29.599 35.2951 29.5369 35.1559 29.5019C35.0168 29.4669 34.872 29.4597 34.73 29.4807L32.0315 29.8785L31.2199 29.4413C31.7393 28.8484 32.1341 28.1569 32.3807 27.4082C32.6273 26.6594 32.7206 25.8687 32.6551 25.0831C32.5671 24.2376 32.2024 23.4447 31.6177 22.8276C31.9256 21.4921 31.896 20.1009 31.5317 18.7797C30.9489 16.8505 28.3261 15.3031 23.5176 14.05C22.1987 13.7688 20.9931 13.1019 20.0541 12.1339C21.4529 11.526 22.9955 11.3274 24.5026 11.5612C25.2596 11.6152 25.9798 11.9086 26.5589 12.3989C27.1381 12.8893 27.5462 13.5512 27.7243 14.2889C27.7998 14.5642 27.98 14.799 28.2264 14.9432C28.4728 15.0873 28.7658 15.1293 29.0428 15.0602C29.3197 14.9911 29.5587 14.8164 29.7085 14.5734C29.8583 14.3304 29.9071 14.0385 29.8444 13.76C29.566 12.6236 28.9474 11.5992 28.0712 10.8238C27.195 10.0484 26.1031 9.55891 24.9412 9.42075C22.6264 9.06503 20.2588 9.4743 18.1978 10.5864C16.4495 10.5834 14.7202 10.9488 13.1227 11.6589C12.1795 12.087 11.3309 12.6983 10.626 13.4573C9.92112 14.2162 9.37404 15.1076 9.01655 16.0797C8.02718 16.9773 4.70499 20.2456 5.03575 23.4643C5.04449 23.5503 5.06489 23.6246 5.078 23.7076C5.0557 23.7511 5.03717 23.7965 5.02263 23.8432C4.75671 25.3226 4.87614 26.8456 5.36942 28.2655C5.97704 30.0329 6.47828 31.4186 6.8717 32.4998C6.91104 32.6105 6.94455 32.7038 6.9839 32.8102C4.2256 34.6272 0 37.7497 0 39.7518C0 43.0026 4.74578 46.5128 6.85858 47.9116C5.46996 51.6112 3.89775 56.8553 5.16252 59.0001C5.97558 60.3771 7.68913 60.9221 9.89664 60.9221C13.841 60.9221 19.3576 59.1735 24.0932 57.3332C28.6321 55.5628 31.3481 54.2733 33.1447 53.4253C35.4193 52.3441 35.9278 52.1226 36.7467 52.3018C48.9149 54.9756 68.1269 53.4544 68.9355 53.3874C69.0785 53.3758 69.2177 53.3362 69.3454 53.2708C69.473 53.2054 69.5865 53.1155 69.6794 53.0062C69.7723 52.897 69.8427 52.7705 69.8867 52.634C69.9307 52.4975 69.9474 52.3537 69.9358 52.2108C69.9243 52.0678 69.8847 51.9286 69.8193 51.8009C69.7539 51.6733 69.664 51.5598 69.5547 51.4669C69.4454 51.374 69.319 51.3036 69.1825 51.2596C69.046 51.2156 68.9022 51.1989 68.7592 51.2105V51.2075Z" fill="#E5EAEC"/>
<path d="M34.1342 38.4276C34.3161 38.7015 34.5667 38.9229 34.8611 39.0695C35.1554 39.216 35.4832 39.2826 35.8114 39.2625C36.1244 39.2583 36.4357 39.2152 36.7381 39.1342C38.7403 38.4683 40.6179 37.4741 42.294 36.1924C42.3802 36.5823 42.567 36.943 42.8357 37.2384C43.1044 37.5339 43.4458 37.7539 43.8258 37.8766C44.2059 37.9993 44.6115 38.0205 45.0022 37.9379C45.393 37.8554 45.7554 37.6721 46.0534 37.4061C50.2484 33.6308 50.362 33.1514 50.4538 32.7696C50.5806 32.2363 50.7 31.6375 50.8006 31.094L58.8147 31.2688H58.8394C59.1293 31.2719 59.4085 31.1597 59.6156 30.957C59.8227 30.7542 59.9408 30.4775 59.9439 30.1876C59.947 29.8978 59.8348 29.6186 59.6321 29.4115C59.4293 29.2043 59.1526 29.0862 58.8627 29.0832L51.9371 28.9374L69.6234 11.1214C69.7372 11.0228 69.8293 10.9016 69.8941 10.7657C69.9588 10.6297 69.9947 10.4818 69.9996 10.3313C70.0044 10.1808 69.9782 10.0309 69.9224 9.891C69.8666 9.75113 69.7824 9.6243 69.6753 9.51847C69.5682 9.41264 69.4403 9.3301 69.2998 9.27602C69.1592 9.22194 69.009 9.19749 68.8586 9.20421C68.7081 9.21093 68.5607 9.24867 68.4255 9.31506C68.2904 9.38146 68.1704 9.47507 68.0731 9.59003L49.2182 28.5644C49.0563 28.7289 48.9498 28.9398 48.9136 29.1677C48.9136 29.1852 48.6514 30.8652 48.3585 32.1285C47.1831 33.4277 45.9234 34.648 44.5875 35.7815L44.4418 35.6445L46.8737 32.4185C47.0339 32.204 47.1098 31.9382 47.087 31.6715C47.0642 31.4048 46.9443 31.1557 46.7501 30.9715C46.5558 30.7873 46.3007 30.6808 46.0332 30.6722C45.7656 30.6637 45.5042 30.7536 45.2986 30.9249L42.3144 33.4297C40.4817 34.9521 38.4119 36.1639 36.1873 37.0171C36.1232 37.0331 36.0664 37.0448 36.0168 37.055C36.4798 35.5867 37.2474 34.2327 38.2695 33.0814C40.144 31.1465 42.4131 29.6377 44.9226 28.6577C45.1212 28.5825 45.2935 28.4508 45.4181 28.2788L57.5849 11.4303C57.669 11.314 57.7293 11.1822 57.7625 11.0426C57.7957 10.9029 57.801 10.7581 57.7782 10.6163C57.7554 10.4746 57.7049 10.3388 57.6296 10.2165C57.5543 10.0943 57.4557 9.98813 57.3393 9.90403C57.223 9.81993 57.0912 9.75957 56.9516 9.7264C56.8119 9.69322 56.6671 9.68788 56.5253 9.71068C56.3836 9.73348 56.2477 9.78397 56.1255 9.85928C56.0033 9.93458 55.8971 10.0332 55.813 10.1496L43.8371 26.743C41.0777 27.8401 38.5967 29.5368 36.5734 31.7103C35.6992 32.806 32.9117 36.5289 34.1342 38.4276Z" fill="#E5EAEC"/>
<path d="M68.1035 24.3667L58.9442 32.8849L56.7309 32.6314C55.1985 32.4561 53.6529 32.8198 52.3595 33.6601C46.1712 37.7079 45.8973 39.0732 46.1246 40.0335C46.2773 40.6922 46.6126 41.2947 47.0919 41.7717C47.5713 42.2487 48.1753 42.581 48.8348 42.7306C49.6243 42.8708 50.4257 42.9323 51.2274 42.9141C52.1235 42.9141 53.0225 42.8661 53.6301 42.8194C56.7802 42.7323 59.7966 41.5273 62.1396 39.42L69.4004 35.2032C69.5247 35.131 69.6337 35.0351 69.721 34.9208C69.8083 34.8066 69.8722 34.6763 69.9092 34.5373C69.9461 34.3984 69.9553 34.2535 69.9363 34.111C69.9172 33.9685 69.8703 33.8311 69.7982 33.7067C69.726 33.5823 69.6301 33.4734 69.5158 33.3861C69.4016 33.2988 69.2713 33.2348 69.1323 33.1979C68.9934 33.161 68.8485 33.1517 68.706 33.1708C68.5635 33.1899 68.4261 33.2368 68.3017 33.3089L60.9069 37.6103C60.8032 37.6721 60.7094 37.7493 60.6286 37.8391C60.5441 37.9381 58.4619 40.2418 53.4582 40.6396C52.0829 40.7777 50.6967 40.764 49.3244 40.5988C49.0918 40.546 48.8763 40.4352 48.6979 40.2767C48.5196 40.1183 48.3843 39.9173 48.3044 39.6925C48.4968 39.3748 49.4162 38.199 53.5587 35.4902C54.4255 34.9253 55.4629 34.6819 56.4904 34.8025L59.2021 35.1128C59.3602 35.1289 59.5198 35.1112 59.6705 35.061C59.8213 35.0108 59.9596 34.9291 60.0764 34.8214L69.6044 25.9608C69.8169 25.7633 69.9423 25.4895 69.953 25.1995C69.9636 24.9096 69.8587 24.6273 69.6612 24.4148C69.4637 24.2022 69.1899 24.0768 68.9 24.0662C68.61 24.0555 68.3278 24.1605 68.1152 24.3579L68.1035 24.3667Z" fill="#E5EAEC"/>
</svg>
