<svg width="70" height="71" viewBox="0 0 70 71" fill="none" xmlns="http://www.w3.org/2000/svg">
<g clip-path="url(#clip0_469_6006)">
<path d="M16.9619 24.0174C18.3929 25.4483 19.2588 27.3442 19.4005 29.3571L19.9499 39.7419C19.9501 39.7483 19.9506 39.7548 19.9511 39.7614C20.0042 40.4964 19.7678 41.2056 19.286 41.7583C18.8068 42.3081 18.1414 42.6378 17.4111 42.6875C17.3105 42.6935 17.1661 42.6302 17.1418 42.4623L16.4411 30.4909C16.408 29.9257 15.926 29.4941 15.3575 29.5272C14.7921 29.5603 14.3607 30.0453 14.3937 30.6108L15.0951 42.593C15.1193 43.079 15.315 43.577 15.7259 44.0347L19.9328 48.2415C20.1331 48.4417 20.3956 48.5418 20.6579 48.5418C20.9203 48.5418 21.1828 48.4417 21.3831 48.2415C21.7835 47.841 21.7835 47.1918 21.3831 46.7914L18.998 44.4063C19.6967 44.1292 20.3241 43.6888 20.8318 43.1064C21.6732 42.1413 22.0869 40.9052 21.9974 39.6248L21.448 29.2405C21.432 29.0091 21.401 28.698 21.3247 28.2086C25.3451 22.1777 29.7137 18.4953 35.0244 16.6607C40.2602 18.2262 44.4963 21.8004 48.6823 28.1828C48.6233 28.5262 48.5795 28.8732 48.5552 29.2235C48.5549 29.2291 48.5545 29.2347 48.5542 29.2403L48.3861 32.4149C48.356 32.9804 48.7902 33.4632 49.3558 33.4931C49.3743 33.4942 49.3927 33.4946 49.4109 33.4946C49.9523 33.4946 50.405 33.0704 50.4338 32.5234L50.6017 29.3575C50.7435 27.3446 51.6093 25.4486 53.0404 24.0177L69.701 7.35708C70.1014 6.9565 70.1014 6.30736 69.701 5.90691C69.3004 5.50659 68.6512 5.50659 68.2508 5.90691L57.5959 16.5618C57.4159 16.2954 57.2228 16.0378 57.0177 15.7901C58.3739 11.6326 56.734 6.99232 53.0314 4.63091C52.4264 4.24167 51.8066 3.86077 51.1896 3.49874C50.7014 3.21231 50.0729 3.37569 49.7862 3.86419C49.4996 4.35255 49.6633 4.98091 50.1516 5.26761C50.7447 5.61556 51.3403 5.98183 51.9228 6.35644C54.5618 8.0497 55.8673 11.121 55.3109 14.1686L49.7757 9.98168C49.3242 9.64016 48.681 9.7293 48.3393 10.1809C47.9976 10.6326 48.0868 11.2756 48.5385 11.6172L54.1425 15.8562C54.9311 16.4529 55.5999 17.203 56.1093 18.0485L51.5901 22.5678C50.688 23.4698 49.9674 24.5211 49.4519 25.6642C45.4912 20.0192 41.385 16.6454 36.427 14.9552C38.4179 10.3903 37.2498 8.50867 36.2964 6.97673C35.6041 5.86439 35.0914 5.03847 35.7799 3.02063C38.1547 2.3909 40.4815 2.25391 42.0475 2.25391C43.1162 2.25391 44.4491 2.57 46.0091 3.19372C46.1339 3.24362 46.2627 3.26727 46.3894 3.26727C46.7964 3.26727 47.1814 3.02323 47.3418 2.62223C47.5521 2.09641 47.2961 1.49963 46.7703 1.28949C44.9671 0.568712 43.3782 0.203125 42.0475 0.203125C40.2946 0.203125 37.6529 0.36377 34.9634 1.11709C33.9679 0.858283 31.5484 0.203125 27.9545 0.203125C25.2431 0.203125 21.5481 1.69254 16.972 4.62981C13.3171 6.95117 11.6193 11.5764 12.9844 15.7884C12.7795 16.036 12.5854 16.2926 12.4053 16.5603L9.36673 13.5217C8.96614 13.1214 8.317 13.1214 7.91655 13.5217C7.5161 13.9223 7.5161 14.5715 7.91655 14.9719L16.9619 24.0174ZM15.8597 15.8555L21.4636 11.6166C21.9153 11.2749 22.0045 10.6319 21.6628 10.1802C21.3213 9.72848 20.678 9.63947 20.2265 9.981L14.6915 14.1676C14.1348 11.1207 15.4403 8.04957 18.0797 6.35548C22.2603 3.67223 25.6748 2.25391 27.9545 2.25391C30.5188 2.25391 32.52 2.63741 33.6698 2.90756C32.9564 5.49101 33.8002 6.84671 34.5553 8.05982C35.4388 9.47937 36.2052 10.7115 34.2676 14.7503C28.9721 16.6001 24.5719 20.11 20.5654 25.6989C20.049 24.5421 19.3234 23.4784 18.4122 22.5672L13.8902 18.0452C14.4002 17.1948 15.0612 16.4596 15.8597 15.8555Z" fill="#E5EAEC"/>
<path d="M4.52853 11.5833C4.72882 11.7836 4.99119 11.8837 5.25369 11.8837C5.51606 11.8837 5.77856 11.7836 5.97871 11.5834C6.3793 11.1828 6.3793 10.5337 5.97885 10.1334L1.75148 5.90588C1.35103 5.50542 0.70175 5.50529 0.301435 5.90574C-0.0991534 6.30633 -0.0991534 6.95547 0.301298 7.35579L4.52853 11.5833Z" fill="#E5EAEC"/>
<path d="M68.2502 23.7143L62.0437 29.9208C61.2918 30.6729 60.8022 31.6667 60.6651 32.7191L59.4779 41.842C59.3656 42.7302 58.9538 43.5693 58.3186 44.2044L48.4615 54.0614C47.878 54.6453 46.9305 54.6472 46.3499 54.0663C45.769 53.4855 45.7713 52.5381 46.3548 51.9547L54.2759 44.0336C54.5545 43.712 54.8592 43.182 54.9066 42.5922L55.608 30.61C55.6411 30.0445 55.2096 29.5594 54.6442 29.5263C54.077 29.492 53.5935 29.9247 53.5606 30.4901L52.8599 42.4615C52.8553 42.5399 52.7875 42.6888 52.5902 42.6866C51.8601 42.6369 51.1948 42.3071 50.7158 41.7575C50.3548 41.3452 50.0185 40.5753 50.0518 39.7409L50.1804 37.3073C50.2103 36.7418 49.7761 36.2591 49.2105 36.2293C48.6464 36.1954 48.1622 36.6335 48.1324 37.1991L48.0042 39.6233C47.9146 40.9038 48.3284 42.1399 49.1697 43.1051C49.6775 43.6876 50.3048 44.1278 51.0034 44.4051C50.8332 44.5642 44.9913 50.4382 44.8052 50.5924C40.7291 54.267 37.247 56.2907 35.0003 56.2907C32.8068 56.3797 28.5443 53.7989 24.7688 50.1754C24.3682 49.7751 23.7191 49.7751 23.3186 50.1754C22.9182 50.576 22.9182 51.2251 23.3186 51.6256L23.6462 51.9532C24.2297 52.5374 24.2318 53.4855 23.6507 54.0664C23.37 54.3471 22.9969 54.5018 22.5998 54.5018C22.2001 54.5018 21.8235 54.3452 21.5394 54.061L11.6818 44.2034C11.0466 43.5682 10.6353 42.7297 10.523 41.8376L9.33596 32.7172C9.1976 31.6645 8.70815 30.6712 7.95756 29.9204L1.75052 23.7133C1.34993 23.313 0.700787 23.313 0.300337 23.7133C-0.100112 24.1139 -0.100112 24.7631 0.300337 25.1635L6.50738 31.3704C6.94037 31.8035 7.22283 32.3767 7.3024 32.983L8.48871 42.0979C8.65688 43.4352 9.27594 44.6979 10.2315 45.6536L20.089 55.5112C20.7606 56.1826 21.6523 56.5524 22.5996 56.5524C23.5445 56.5524 24.4326 56.1846 25.1008 55.5166C25.5437 55.0737 25.8436 54.541 26.0019 53.9762C26.5146 54.3881 27.0156 54.7721 27.5044 55.126V59.0799C27.5044 60.4634 26.5131 61.6271 25.1472 61.8471L15.7976 63.3525C12.6869 63.8533 10.0819 65.8784 8.82901 68.7692C8.60397 69.2889 8.84254 69.8926 9.36207 70.1178C9.49496 70.1754 9.63319 70.2026 9.76936 70.2026C10.1656 70.2026 10.5431 69.9715 10.7108 69.5846C11.684 67.339 13.7074 65.766 16.1236 65.3771L25.4733 63.8717C27.8386 63.4908 29.5552 61.4755 29.5552 59.0798V56.4819C31.6339 57.7173 33.4548 58.3412 35 58.3412C36.5452 58.3412 38.3662 57.7174 40.4449 56.4819V59.0798C40.4449 61.4754 42.1617 63.4908 44.5268 63.8717L53.8764 65.3771C56.2927 65.7662 58.3161 67.3391 59.2893 69.5846C59.457 69.9714 59.8344 70.2026 60.2307 70.2026C60.3667 70.2026 60.5051 70.1754 60.638 70.1178C61.1577 69.8926 61.3962 69.2889 61.1711 68.7692C59.9182 65.8783 57.3131 63.8533 54.2025 63.3525L44.8528 61.8471C43.487 61.6271 42.4957 60.4634 42.4957 59.0799V55.126C42.9844 54.7721 43.4855 54.3883 43.9981 53.9763C44.1564 54.5407 44.4562 55.0732 44.8992 55.5162C45.5885 56.2055 46.4941 56.5501 47.4006 56.5501C48.3092 56.5499 49.2188 56.2036 49.9112 55.5113L59.7682 45.6543C60.7233 44.699 61.3426 43.4364 61.5115 42.1026L62.6982 32.9836C62.7771 32.3772 63.0596 31.8045 63.4934 31.3707L69.6999 25.1642C70.1003 24.7636 70.1003 24.1145 69.6999 23.714C69.3 23.314 68.6508 23.314 68.2502 23.7143Z" fill="#E5EAEC"/>
<path d="M31.4367 42.1604C31.2393 42.6912 31.5094 43.2815 32.0402 43.479C32.9528 43.8184 33.8715 43.9882 34.7903 43.9882C35.709 43.9882 36.6279 43.8185 37.5404 43.479C38.0711 43.2816 38.3413 42.6912 38.1439 42.1604C37.9463 41.6295 37.3562 41.3593 36.8252 41.5569C35.4558 42.0664 34.1245 42.0664 32.7551 41.5569C32.2243 41.3596 31.634 41.6296 31.4367 42.1604Z" fill="#E5EAEC"/>
<path d="M47.0449 30.3812C47.2134 29.8406 46.9116 29.2657 46.3709 29.0973C44.1502 28.4055 41.3868 27.5449 38.099 29.1554C37.5904 29.4046 37.3801 30.0187 37.6292 30.5273C37.8784 31.0359 38.4927 31.2461 39.0012 30.9971C41.3782 29.8324 43.2209 30.264 45.7609 31.0552C45.8623 31.0868 45.9651 31.102 46.066 31.102C46.5032 31.102 46.9082 30.8203 47.0449 30.3812Z" fill="#E5EAEC"/>
<path d="M31.9028 29.1556C28.6151 27.5447 25.8515 28.4055 23.6309 29.0975C23.0901 29.2658 22.7884 29.8408 22.9568 30.3814C23.0936 30.8207 23.4985 31.1021 23.9355 31.1021C24.0364 31.1021 24.1392 31.087 24.2406 31.0553C26.7809 30.2641 28.6236 29.8325 31.0003 30.9972C31.5088 31.2464 32.1231 31.036 32.3723 30.5274C32.6217 30.019 32.4114 29.4048 31.9028 29.1556Z" fill="#E5EAEC"/>
<path d="M30.0078 48.9659C31.3585 49.6354 32.8564 49.6714 34.4604 49.0728C34.6289 49.0098 34.8147 49.0098 34.9837 49.0728C35.7404 49.3551 36.4734 49.4964 37.1787 49.4964C37.9681 49.4964 38.7228 49.3195 39.4362 48.9659C39.9437 48.7145 40.1511 48.0994 39.8997 47.5919C39.6483 47.0844 39.033 46.8768 38.5257 47.1284C37.6796 47.5477 36.7818 47.5551 35.7009 47.1515C35.0694 46.9156 34.3743 46.9156 33.7433 47.1515C32.662 47.5548 31.7645 47.5474 30.9184 47.1284C30.4109 46.8764 29.7958 47.0845 29.5444 47.5919C29.2929 48.0994 29.5004 48.7145 30.0078 48.9659Z" fill="#E5EAEC"/>
<path d="M24.04 36.8218C25.0899 37.2187 26.1471 37.4172 27.2044 37.4172C28.2616 37.4172 29.319 37.2187 30.3689 36.8218C30.8987 36.6214 31.1657 36.0296 30.9654 35.5C30.7651 34.9702 30.173 34.7033 29.6436 34.9035C28.0023 35.5239 26.4069 35.5242 24.7653 34.9035C24.2361 34.7032 23.6439 34.9702 23.4435 35.5C23.2432 36.0296 23.5102 36.6214 24.04 36.8218Z" fill="#E5EAEC"/>
<path d="M45.9617 36.8218C46.4915 36.6214 46.7585 36.0296 46.5582 35.5C46.3579 34.9702 45.7656 34.7033 45.2364 34.9035C43.5948 35.5242 41.9994 35.5239 40.3581 34.9035C39.829 34.7032 39.2366 34.9702 39.0363 35.5C38.836 36.0296 39.103 36.6214 39.6328 36.8218C40.6827 37.2187 41.7399 37.4172 42.7973 37.4172C43.8546 37.4172 44.9118 37.2187 45.9617 36.8218Z" fill="#E5EAEC"/>
</g>
<defs>
<clipPath id="clip0_469_6006">
<rect width="70" height="70" fill="white" transform="translate(0 0.203125)"/>
</clipPath>
</defs>
</svg>
