<?xml version="1.0" encoding="UTF-8"?>
<svg id="Layer_1" xmlns="http://www.w3.org/2000/svg" version="1.1" viewBox="0 0 163.3 41">
  <!-- Generator: Adobe Illustrator 29.2.0, SVG Export Plug-In . SVG Version: 2.1.0 Build 108)  -->
  <defs>
    <style>
      .st0 {
        font-size: 8.5px;
      }

      .st0, .st1, .st2, .st3 {
        fill: #06c7f4;
      }

      .st0, .st3 {
        font-family: MyriadPro-Regular, 'Myriad Pro';
      }

      .st1 {
        fill-rule: evenodd;
      }

      .st3 {
        font-size: 19.6px;
      }
    </style>
  </defs>
  <path class="st1" d="M35.9,38c-5.8,0-10.9-.5-15-1.5-.6-.2-1.1-.4-1.6-1,0,0,0,0,0,0-1.6-1.6-4-4-7.1-6.2.4-.8.4-1.7-.1-2.5l-1.6-2.3c.3-.2.6-.4.7-.4.3,0,.7.6,1,1.2h0c.3.5.6,1,.9,1.4,1.7,1.9,2.6,2.2,3.8,2.5h0c.3.1.7.2,1.1.4.2,0,.4.2.7.2,0,.7.3,1.4.9,1.8.4.3.9.4,1.3.4s1.2-.2,1.6-.7c.3.2.5.4.8.7.1.1.2.2.4.2l8.1-.5s0,0,.1,0c0,0,2.3-.7,3.5-1.9.2-.2.2-.5,0-.7-.2-.2-.5-.2-.7,0-1,.9-2.7,1.6-3.1,1.7l-7.8.4c-.2-.3-.5-.5-.8-.7l4-5.5c.5-.7.6-1.4.3-2.5-.3-1-1.5-5-2.1-7.4-.6-2.3-3-2.8-4.6-3,.8-1,1.2-2.2,1.2-3.5,0-3.2-2.6-5.8-5.8-5.8s-5.8,2.6-5.8,5.8.5,2.6,1.3,3.6c-1.3.3-3.7,1-4.6,2.8l-3.2,5.8c-.4.8-.4,1.7.1,2.4l2.8,4c-.2.2-.4.3-.5.4-1.5.6-2.1,1.7-2.4,2.4-.2.5-.3,1.2-.1,1.6.1.3.5.7.9.8.2,0,.5,0,.6-.3v-.2c.4-.4.6-.6,1.3-.8,1.4-.4,2.2-.7,2.8-.9.1,0,.3,0,.4.1.1,0,.2,0,.4,0,.5,0,.9-.1,1.3-.4,1.6,1.1,3,2.3,4.2,3.4-1,.2-1.8.3-3.8-.3-.4-.1-.8-.3-1.2-.5h0c-.8-.5-1.7-.9-2.4-.6-.3.1-.4.4-.6,1.1h0c-.4,1.2-1.2,3.6-3.6,5-.2.1-.3.4-.2.7,0,.2.3.2.4.2s.2,0,.3,0c2.7-1.6,3.6-4.3,4-5.5,0,0,0-.2,0-.2,0-.1,0-.2,0-.3.3,0,.9.3,1.4.5h0c.5.3,1,.5,1.5.7,2.5.7,3.4.5,4.6.2,0,0,.2,0,.2,0h0c0,0,.1,0,.2,0,.8.7,1.4,1.4,2,2,.7.8,1.4,1.1,2.1,1.3,4,1.1,8.9,1.6,14.5,1.6s.6,0,.8,0c.3,0,.5-.2.5-.5,0-.3-.2-.5-.5-.5ZM16.1,4c2.6,0,4.8,2.1,4.8,4.8s-2.1,4.8-4.8,4.8-4.8-2.1-4.8-4.8,2.1-4.8,4.8-4.8ZM4.7,21.4l3.2-5.8s0,0,0,0c.8-1.5,3.1-2.2,4.5-2.4,1,.8,2.3,1.3,3.7,1.3s2.7-.5,3.7-1.3c0,0,.1,0,.2,0h0c1.4.1,3.8.4,4.3,2.3.6,2.4,1.8,6.4,2.1,7.5.2.8.1,1.2-.1,1.6l-4.4,6.1c-.4.6-1.2.7-1.8.3-.6-.4-.7-1.2-.3-1.8l3.6-5c0-.1.1-.3,0-.4l-1.4-5.1c0-.3-.3-.4-.6-.4-.3,0-.4.3-.4.6l1.3,4.8-3.4,4.8c0,.1-.2.3-.2.4-.2,0-.3-.1-.5-.2-.4-.2-.8-.3-1.1-.4-1.1-.4-1.8-.6-3.4-2.3-.3-.3-.6-.8-.8-1.2h0c-.5-.8-1-1.6-1.8-1.7-.3,0-.9.2-1.4.6l-1.2-1.6,1.8-2.2c0,.4.1.9.1,1.6,0,.3.2.5.5.5.3,0,.5-.2.5-.5,0-1.9-.3-2.8-.4-2.9h0c0-.2-.2-.3-.4-.3-.2,0-.3,0-.5.2l-2.6,3.3c-.1.2-.1.4,0,.6l3.6,5c.4.6.3,1.4-.3,1.8-.3.2-.6.3-1,.2-.3,0-.6-.2-.8-.5l-4.4-6.1c-.3-.4-.3-.9,0-1.4ZM6.4,30.2c-1,.3-1.3.7-1.7,1.1,0,0,0,0,0,0s0,0,0,0c0-.3.3-2,2-2.6.2,0,.5-.3.8-.5l.9,1.3h0c-.5.3-1.2.5-2.1.8ZM31.7,12.3c.5,0,.8-.4.8-.8s-.4-.8-.8-.8-.8.4-.8.8.4.8.8.8ZM31.7,16.8c.5,0,.8-.4.8-.8s-.4-.8-.8-.8-.8.4-.8.8.4.8.8.8ZM32.5,20.4c0,.5-.4.8-.8.8s-.8-.4-.8-.8.4-.8.8-.8.8.4.8.8ZM9.1,38h7.6c.3,0,.5.2.5.5s-.2.5-.5.5h-7.6c-.3,0-.5-.2-.5-.5s.2-.5.5-.5Z"/>
  <path class="st2" d="M20.9,36.4v-.4c.1,0,0,0,0,0v.4ZM35.9,38v-.4h0v.4ZM19.3,35.5l.3-.3h0s0,0,0,0l-.3.3ZM19.3,35.4h.4v-.2h-.1c0-.1-.3.2-.3.2ZM12.2,29.3l-.3-.2-.2.3.3.2.2-.3ZM12.1,26.8l.3-.2h0s-.3.2-.3.2ZM10.4,24.5l-.2-.3-.3.2.2.3.3-.2ZM11.2,24.2v-.4c0,0,0,0,0,0h0s0,.4,0,.4ZM12.2,25.3l-.3.2h0l.3-.2ZM12.2,25.4l.3-.2h0s-.3.2-.3.2ZM13.1,26.7l.3-.3h0s-.3.3-.3.3ZM16.9,29.3v-.4q.1,0,.1,0v.4ZM16.9,29.3v.4c-.1,0-.1,0-.1,0v-.4ZM18,29.6l-.2.4h0s.2-.4.2-.4ZM18.6,29.9h.4s0-.3,0-.3h-.3c0,0-.1.3-.1.3ZM19.6,31.7l.2-.3h0s-.2.3-.2.3ZM22.5,31.4l.2-.3-.3-.2-.2.2.3.3ZM23.3,32.1l.3-.3h0s-.3.3-.3.3ZM23.7,32.3v-.4s0,0,0,0v.4ZM31.8,31.8v-.4h0s0,.4,0,.4ZM31.9,31.8v-.4c-.1,0-.1,0-.1,0v.4ZM35.4,29.9l-.3-.3h0s.3.3.3.3ZM35.4,29.2l-.3.3h0s.3-.3.3-.3ZM34.7,29.1l.3.3h0s-.3-.3-.3-.3ZM31.7,30.8v.4s0,0,0,0h0s-.1-.4-.1-.4ZM23.9,31.3l-.3.3h.1c0,.1.2.1.2.1v-.4ZM23.1,30.6l-.3-.2-.2.3.3.2.2-.3ZM27.1,25.1l.3.2h0l-.3-.2ZM27.4,22.6h-.4c0,.1,0,.1,0,.1h.4ZM25.3,15.2h.4c0,0,0,0,0,0h-.4ZM20.7,12.3l-.3-.2-.4.6h.7c0,0,0-.3,0-.3ZM11.6,12.3v.4c0,0,.7-.1.7-.1l-.4-.5-.3.3ZM7.1,15.1l.3.2h0s0,0,0,0l-.4-.2ZM3.8,20.9l.3.2h0l-.3-.2ZM4,23.4l.3-.2h0s-.3.2-.3.2ZM6.8,27.3l.3.3.3-.2-.2-.3-.3.2ZM6.3,27.7v.4c.1,0,.1,0,.1,0h0s-.2-.4-.2-.4ZM3.9,30.1h-.4c0-.1,0-.1,0-.1h.4ZM3.8,31.7l-.4.2h0s.4-.2.4-.2ZM4.7,32.4v.4s0,0,0,0v-.4ZM5.3,32.2l.3.2h0s-.3-.2-.3-.2ZM5.4,32l.3.2h0s-.3-.2-.3-.2ZM6.6,31.2v-.4h-.1v.4ZM9.4,30.3v-.4c.1,0,0,0,0,0h-.1s.1.4.1.4ZM9.8,30.4v-.4c0,0,0,0,0,0v.4ZM11.5,30l.2-.3-.2-.2-.2.2.2.3ZM15.7,33.3v.4c0,0,.8-.2.8-.2l-.6-.5-.3.3ZM11.9,33.1v-.4c.1,0,.1,0,.1,0v.4ZM10.6,32.5l.2-.4h0l-.2.4ZM10.6,32.5l-.2.4h0s.2-.4.2-.4ZM8.1,32l-.2-.4h0s.2.4.2.4ZM7.5,33h.4c0,.1,0,.1,0,.1h-.4ZM7.5,33h.4q0,.1,0,.1h-.4ZM3.9,38l-.2-.3h0s.2.3.2.3ZM3.7,38.7l-.3.2h0s.3-.2.3-.2ZM4.4,38.9l-.2-.3h0s0,0,0,0l.2.3ZM8.5,33.4h-.4c0-.1,0-.1,0-.1h.4ZM8.6,33.1h.4c0,.1-.4,0-.4,0ZM8.7,32.9v-.4c0,0-.3,0-.3,0v.2c0,0,.3.2.3.2ZM10.1,33.4l-.2.4h0s0,0,0,0v-.4ZM10.1,33.4l.2-.4h0s0,0,0,0v.4ZM10.1,33.4l-.2.4h0s.2-.4.2-.4ZM11.6,34.1v-.4c.1,0,.1,0,.1,0v.4ZM16.1,34.3v.4c0,0,.1,0,.1,0v-.4ZM16.4,34.2v-.4c0,0,0,0,0,0v.4ZM16.4,34.2v.4c0,0,0,0,0,0v-.4ZM16.6,34.2l.3-.3h-.2c0-.1-.2,0-.2,0v.4ZM18.6,36.1l.3-.3h0s0,0,0,0l-.3.3ZM20.6,37.4v-.4c.1,0,0,0,0,0v.4ZM35.9,39v-.4h0s0,.4,0,.4ZM36.4,38.5h.4,0s-.4,0-.4,0ZM8,15.6l-.3-.3h0s0,0,0,0l.3.2ZM4.7,21.4l.3.2h0s-.3-.2-.3-.2ZM8,15.6l-.4-.2h0v.2h.4ZM12.5,13.2l.3-.3h-.1c0-.1-.2,0-.2,0v.4ZM19.8,13.2v-.4s-.1,0-.1,0h-.1c0,.1.3.4.3.4ZM20,13.2v.4s0,0,0,0v-.4ZM20,13.2v.4s0,0,0,0v-.4ZM24.4,15.5h.4c0,0,0,0,0,0h-.4ZM26.4,22.9h-.4c0,.1,0,.1,0,.1h.4ZM26.3,24.5l.3.2h0s-.3-.2-.3-.2ZM21.9,30.6l.3.2h0s-.3-.2-.3-.2ZM20.2,30.9l-.2.3.2-.3ZM19.9,29.1l.3.2h0s-.3-.2-.3-.2ZM23.4,24.1l-.3-.2h0s.3.2.3.2ZM23.5,23.7h-.4c0,.1,0,.1,0,.1h.4ZM22.2,18.6h-.4c0,0,0,.1,0,.1h.4ZM21.6,18.3v.4c0,0,.1,0,.1,0v-.4ZM21.2,18.9h.4c0-.1,0-.1,0-.1h-.4ZM22.5,23.7l.3.2v-.2c.1,0,0-.2,0-.2h-.4ZM19,28.5l.3.2h0s-.3-.2-.3-.2ZM18.8,28.9v.4c-.1,0,.2.1.2.1v-.3c.1,0-.2-.2-.2-.2ZM18.3,28.7v.4c-.1,0-.1,0-.1,0v-.4ZM17.2,28.3v.4c-.1,0-.1,0-.1,0v-.4ZM13.8,26.1l.3-.3h0s-.3.3-.3.3ZM13,24.9l.3-.2h0s-.3.2-.3.2ZM13,24.9l-.3.2.3-.2ZM11.2,23.2v-.4s0,0,0,0v.4ZM9.9,23.7l-.3.2.2.3.3-.2-.2-.3ZM8.7,22.1l-.3-.2-.2.2.2.2.3-.2ZM10.4,19.9h.4c0,0-.1-1-.1-1l-.6.7.3.2ZM10.5,21.5h-.4s0,0,0,0h.4ZM11,22v.4s0,0,0,0v-.4ZM11.5,21.5h-.4s0,0,0,0h.4ZM11.1,18.6h-.4c0,.1,0,.1,0,.1h.4ZM11.1,18.6h.4c0-.1,0-.1,0-.1h0s-.4.1-.4.1ZM10.7,18.3v-.4h0v.4ZM10.3,18.5l-.3-.2h0s.3.2.3.2ZM7.7,21.8l.3.2h0s-.3-.2-.3-.2ZM7.6,22.4l.3-.2h0s-.3.2-.3.2ZM11.2,27.4l-.3.2h0s.3-.2.3-.2ZM10.9,29.2l-.2-.3h0s.2.3.2.3ZM10,29.4v.4h0v-.4ZM9.2,28.9l.3-.2h0s-.3.2-.3.2ZM4.8,22.8l.3-.2h0s-.3.2-.3.2ZM4.7,31.3l-.3.3.3.3.3-.4-.3-.2ZM6.4,30.2v-.4c-.1,0-.1,0-.1,0v.4ZM4.7,31.3h-.4c0,0,0,.2,0,.2h0c0,0,.3-.2.3-.2ZM6.6,28.6v.4c.1,0,.1,0,.1,0v-.4ZM7.4,28.1l.3-.2-.3-.4-.3.3.3.3ZM8.3,29.4l-.3.2h0s0,0,0,0l.3-.2ZM8.4,29.5v.4c.1,0,.7-.2.7-.2l-.3-.4-.3.2ZM20.8,36.8c4.2,1.1,9.3,1.6,15.2,1.6v-.8c-5.8,0-10.9-.5-14.9-1.5l-.2.8ZM19,35.7c.6.7,1.1.9,1.8,1.1l.2-.8c-.5-.1-.9-.3-1.4-.8l-.6.5ZM18.9,35.4c0,.1,0,.2,0,.3,0,0,0,0,0,0,0,0,0,0,0,0l.6-.6s0,0,0,0c0,0,0,.1,0,.2h-.8ZM11.9,29.6c3,2.1,5.5,4.5,7.1,6.1l.6-.6c-1.6-1.6-4.1-4-7.2-6.2l-.5.7ZM11.7,27c.4.6.5,1.4.1,2l.7.4c.5-.9.5-2-.1-2.9l-.7.5ZM10.1,24.8l1.6,2.3.6-.5-1.6-2.3-.6.5ZM11.1,23.8c-.1,0-.3,0-.4.2-.1,0-.3.2-.5.3l.4.7c.1,0,.3-.2.4-.2,0,0,.1,0,.1,0,0,0,0,0,0,0l-.2-.8ZM12.5,25.1c-.2-.3-.3-.6-.5-.8,0-.1-.2-.2-.3-.3-.1,0-.3-.2-.4-.2l-.2.8s0,0,0,0c0,0,.1.1.2.2.2.2.3.5.5.7l.7-.4ZM12.5,25.2h0s-.7.4-.7.4h0s.7-.4.7-.4ZM13.4,26.4c-.3-.4-.6-.8-.9-1.3l-.7.4c.3.5.6,1,1,1.4l.6-.6ZM17,28.9c-.6-.2-1-.3-1.6-.7-.5-.3-1.2-.8-2-1.8l-.6.5c.9,1,1.6,1.5,2.2,1.9.6.4,1.2.6,1.8.7l.2-.8ZM17,28.9h0s-.2.8-.2.8h0s.2-.8.2-.8ZM18.1,29.3c-.4-.2-.8-.3-1.1-.4l-.2.8c.3.1.6.2,1,.4l.3-.7ZM18.8,29.5c-.2,0-.4-.1-.6-.2l-.3.7c.2,0,.5.2.7.3l.3-.8ZM19.8,31.4c-.5-.4-.8-.9-.8-1.5h-.8c0,.8.4,1.6,1.1,2.1l.5-.7ZM20.9,31.7c-.4,0-.8-.1-1.1-.4l-.5.6c.5.3,1,.5,1.6.5v-.8ZM22.3,31.1c-.4.4-.9.6-1.4.6v.8c.7,0,1.4-.3,1.9-.8l-.6-.6ZM23.6,31.9c-.3-.3-.5-.5-.8-.8l-.5.6c.3.2.5.4.7.7l.6-.5ZM23.7,31.9s0,0,0,0l-.6.5c.2.2.4.3.7.3v-.8ZM31.8,31.4l-8.1.5v.8s8.1-.5,8.1-.5v-.8ZM31.8,31.4s0,0,0,0v.8c0,0,.2,0,.3,0l-.3-.8ZM35.2,29.6c-.6.6-1.4,1-2.1,1.3-.3.2-.7.3-.9.4-.1,0-.2,0-.3,0,0,0,0,0,0,0,0,0,0,0,0,0,0,0,0,0,0,0,0,0,0,0,0,0,0,0,0,0,0,0h0s.2.8.2.8c0,0,.6-.2,1.4-.5.7-.3,1.6-.8,2.3-1.5l-.6-.6ZM35.2,29.4s0,0,0,.1l.6.6c.4-.3.4-.9,0-1.3l-.6.6ZM35,29.4s0,0,.1,0l.6-.6c-.3-.4-.9-.4-1.3,0l.6.6ZM31.8,31.2c.2,0,.7-.3,1.3-.6.6-.3,1.3-.7,1.9-1.2l-.6-.6c-.4.4-1.1.8-1.7,1.1-.6.3-1.1.5-1.2.5l.3.8ZM23.9,31.7l7.8-.4v-.8s-7.8.4-7.8.4v.8ZM22.9,30.9c.2.2.5.4.7.6l.6-.5c-.3-.3-.5-.5-.8-.7l-.5.7ZM26.8,24.9l-4,5.5.6.5,4-5.5-.6-.5ZM27,22.7c.1.5.2.9.2,1.2,0,.3-.2.6-.4.9l.6.5c.3-.4.5-.8.5-1.3,0-.5,0-1-.2-1.5l-.8.2ZM24.9,15.3c.6,2.4,1.8,6.4,2.1,7.4l.8-.2c-.3-1-1.5-5-2.1-7.4l-.8.2ZM20.7,12.7c.8,0,1.8.2,2.6.6.8.4,1.4,1,1.7,2l.8-.2c-.3-1.3-1.2-2.1-2.1-2.5-.9-.5-2-.6-2.8-.7v.8ZM21.5,8.7c0,1.2-.4,2.4-1.1,3.3l.6.5c.8-1,1.3-2.4,1.3-3.8h-.8ZM16.2,3.4c3,0,5.4,2.4,5.4,5.4h.8c0-3.4-2.8-6.2-6.2-6.2v.8ZM10.8,8.7c0-3,2.4-5.4,5.4-5.4v-.8c-3.4,0-6.2,2.8-6.2,6.2h.8ZM12,12.1c-.7-.9-1.2-2.1-1.2-3.3h-.8c0,1.4.5,2.8,1.3,3.8l.6-.5ZM7.4,15.3c.4-.8,1.1-1.4,1.9-1.8.8-.4,1.7-.7,2.3-.8l-.2-.8c-.7.1-1.6.4-2.5.9-.9.5-1.8,1.1-2.3,2.1l.7.4ZM4.2,21.1l3.2-5.8-.7-.4-3.2,5.8.7.4ZM4.3,23.1c-.4-.6-.5-1.4-.1-2l-.7-.4c-.5.9-.4,2,.2,2.8l.6-.5ZM7.2,27.1l-2.8-4-.7.5,2.8,4,.7-.5ZM6.4,28.1c.2,0,.4-.2.7-.5l-.5-.6c-.2.2-.4.3-.4.3l.3.7ZM4.3,30.2c.2-.6.8-1.6,2.1-2.1l-.3-.7c-1.6.6-2.3,1.9-2.6,2.6l.7.3ZM4.1,31.5c0,0,0-.3,0-.5,0-.3.1-.5.2-.8l-.7-.3c-.1.3-.2.6-.2.9,0,.3,0,.7.1,1l.7-.4ZM4.7,32c-.1,0-.2,0-.3-.2-.1-.1-.2-.3-.3-.4l-.7.4c0,.2.2.4.4.6.2.2.5.4.8.4v-.8ZM5,31.9c0,0-.2.1-.3.1v.8c.3,0,.7-.1.9-.4l-.6-.5ZM5.1,31.8v.2c-.1,0,.5.5.5.5v-.2c.1,0-.5-.5-.5-.5ZM6.5,30.8c-.4.1-.7.2-.9.4-.2.2-.4.4-.5.6l.6.5c.2-.2.2-.3.4-.4.1,0,.3-.2.6-.3l-.2-.8ZM9.3,29.9c-.6.2-1.4.5-2.8.9l.2.8c1.4-.4,2.2-.7,2.8-.9l-.3-.8ZM9.9,30c-.1,0-.2,0-.3,0l-.3.8c.1,0,.3,0,.5.1v-.8ZM10.2,30c-.1,0-.2,0-.3,0v.8s.2,0,.3,0v-.8ZM11.3,29.7c-.3.2-.7.3-1.1.3v.8c.5,0,1.1-.2,1.5-.5l-.5-.7ZM15.9,33.1c-1.2-1.1-2.6-2.3-4.2-3.4l-.5.7c1.6,1.1,2.9,2.2,4.1,3.3l.5-.6ZM11.8,33.5c1,.3,1.8.4,2.4.4.6,0,1.1,0,1.6-.2l-.2-.8c-.5.1-.9.2-1.4.2-.5,0-1.2-.1-2.2-.4l-.2.8ZM10.4,32.9c.4.2.9.5,1.3.6l.2-.8c-.3,0-.7-.3-1.2-.5l-.4.7ZM10.4,32.9h0s.4-.7.4-.7h0s-.4.7-.4.7ZM8.3,32.3c.3-.1.5-.1.9,0,.4.1.7.3,1.2.5l.4-.7c-.4-.2-.9-.5-1.3-.6-.5-.1-1-.2-1.5,0l.3.7ZM7.9,33.2c.1-.3.2-.5.3-.7,0-.1.1-.2.2-.2l-.3-.7c-.2.1-.4.3-.5.5-.1.2-.2.5-.3.8l.8.3ZM7.9,33.2h0s-.8-.3-.8-.3h0s.8.3.8.3ZM4.1,38.4c2.5-1.5,3.3-4,3.8-5.2l-.8-.3c-.4,1.2-1.2,3.4-3.4,4.8l.4.7ZM4.1,38.5s0-.1,0-.1l-.4-.7c-.4.3-.6.8-.3,1.2l.7-.4ZM4.2,38.6s0,0,0,0l-.7.4c.2.3.4.4.8.4v-.8ZM4.2,38.6s0,0,0,0c0,0,0,0,0,0v.8c.2,0,.3,0,.5-.1l-.4-.7ZM8.1,33.2c-.4,1.3-1.3,3.8-3.9,5.3l.4.7c2.8-1.7,3.8-4.5,4.2-5.7l-.8-.3ZM8.2,33c0,0,0,.2,0,.2l.8.3c0,0,0-.2,0-.3l-.8-.3ZM8.3,32.7c0,0,0,.2-.1.3l.8.3c0-.1,0-.2,0-.3l-.7-.3ZM10.3,33c-.3-.1-.5-.3-.8-.4-.2-.1-.6-.2-.9-.2v.8c.2,0,.3,0,.5.1.2,0,.5.2.7.4l.4-.7ZM10.2,33h0l-.3.7h0l.3-.7ZM10.3,33h0s-.4.7-.4.7h0s.4-.7.4-.7ZM11.7,33.7c-.5-.1-.9-.4-1.4-.6l-.4.7c.5.3,1,.5,1.6.7l.2-.8ZM16.1,33.9c-.6.1-1.1.3-1.7.3-.6,0-1.4-.1-2.6-.5l-.2.8c1.2.4,2.1.5,2.9.5.7,0,1.3-.1,1.9-.3l-.2-.8ZM16.3,33.8c0,0-.2,0-.3,0l.2.8c0,0,.1,0,.2,0l-.2-.8ZM16.3,33.8h0l.2.8h0l-.2-.8ZM16.5,33.8c0,0-.1,0-.2,0l.2.8c0,0,.1,0,.2,0l-.2-.8ZM18.8,35.8c-.6-.6-1.2-1.3-2-2l-.5.6c.8.7,1.4,1.4,2,2l.6-.6ZM20.7,37c-.6-.2-1.2-.4-1.9-1.1l-.6.5c.8.9,1.6,1.2,2.3,1.4l.2-.8ZM35.1,38.6c-5.5,0-10.4-.5-14.4-1.6l-.2.8c4.1,1.1,9,1.6,14.6,1.6v-.8ZM35.9,38.6c-.3,0-.6,0-.8,0v.8c.3,0,.6,0,.9,0v-.8ZM36,38.5c0,0,0,.1,0,.1v.8c.5,0,.9-.4.9-.9h-.8ZM35.9,38.4s0,0,0,0c0,0,0,0,0,0h.8c0-.5-.4-.9-.9-.9v.8ZM21.3,8.8c0-2.8-2.3-5.2-5.2-5.2v.8c2.4,0,4.4,2,4.4,4.4h.8ZM16.1,13.9c2.8,0,5.2-2.3,5.2-5.2h-.8c0,2.4-2,4.4-4.4,4.4v.8ZM11,8.8c0,2.8,2.3,5.2,5.2,5.2v-.8c-2.4,0-4.4-2-4.4-4.4h-.8ZM16.1,3.6c-2.8,0-5.2,2.3-5.2,5.2h.8c0-2.4,2-4.4,4.4-4.4v-.8ZM7.6,15.4l-3.2,5.8.7.4,3.2-5.8-.7-.4ZM7.6,15.6s0,0,0,0c0,0,0-.1,0-.2l.6.6c.1-.1.1-.3.1-.3h-.8ZM12.4,12.8c-.7,0-1.7.3-2.6.7-.9.4-1.8,1-2.2,1.9l.7.4c.3-.6,1-1.1,1.8-1.5.8-.4,1.7-.6,2.4-.7v-.8ZM16.1,14.1c-1.3,0-2.5-.5-3.4-1.2l-.5.6c1.1.9,2.4,1.4,3.9,1.4v-.8ZM19.6,12.9c-.9.8-2.1,1.2-3.4,1.2v.8c1.5,0,2.9-.5,3.9-1.4l-.5-.6ZM20.1,12.8c0,0-.1,0-.2,0v.8s0,0,.1,0v-.8ZM20.1,12.8h0s0,.8,0,.8h0s0-.8,0-.8ZM24.7,15.4c-.3-1.1-1.2-1.7-2.1-2.1-.9-.3-1.9-.4-2.6-.5v.8c.7,0,1.6.2,2.4.4.8.3,1.4.7,1.6,1.5l.8-.2ZM26.8,22.8c-.3-1-1.4-5-2.1-7.4l-.8.2c.6,2.4,1.8,6.4,2.1,7.5l.8-.2ZM26.6,24.7c.2-.2.3-.5.3-.8,0-.3,0-.7-.1-1.1l-.8.2c.1.4.1.6.1.8,0,.2,0,.3-.2.4l.7.5ZM22.3,30.8l4.4-6.1-.6-.5-4.4,6.1.6.5ZM19.9,31.2c.8.5,1.8.4,2.3-.4l-.6-.5c-.3.4-.8.5-1.2.2l-.5.6ZM19.5,28.9c-.5.8-.4,1.8.4,2.3l.5-.6c-.4-.3-.5-.8-.2-1.2l-.6-.5ZM23.1,23.9l-3.6,5,.6.5,3.6-5-.6-.5ZM23.1,23.8s0,0,0,0l.6.5c.2-.2.2-.5.1-.8l-.8.2ZM21.8,18.7l1.4,5.1.8-.2-1.4-5.1-.8.2ZM21.7,18.7c0,0,.1,0,.1,0l.8-.2c-.1-.5-.6-.8-1.1-.6l.2.8ZM21.6,18.8c0,0,0-.1,0-.1l-.2-.8c-.5.1-.8.6-.6,1.1l.8-.2ZM22.9,23.6l-1.3-4.8-.8.2,1.3,4.8.8-.2ZM19.4,28.8l3.4-4.8-.6-.5-3.4,4.8.6.5ZM19.2,29.1c0-.1.1-.2.2-.3l-.6-.5c-.1.1-.2.3-.3.5l.7.3ZM18.2,29.1c.2,0,.3.1.5.2l.3-.8c-.2,0-.3-.1-.5-.2l-.3.7ZM17.1,28.7c.3.1.7.2,1.1.4l.3-.7c-.4-.2-.8-.3-1.1-.4l-.2.8ZM13.6,26.3c.8.9,1.4,1.4,1.9,1.7.6.3,1.1.5,1.6.7l.2-.8c-.5-.2-1-.3-1.4-.6-.5-.3-1-.7-1.8-1.6l-.6.5ZM12.7,25.1c.2.4.5.9.9,1.3l.6-.5c-.3-.3-.5-.7-.8-1.1l-.7.4ZM12.7,25.1h0s.7-.4.7-.4h0s-.7.4-.7.4ZM11.2,23.6c.3,0,.5.2.8.4.3.3.5.6.7,1l.7-.4c-.2-.4-.5-.8-.8-1.2-.3-.4-.7-.6-1.3-.7v.8ZM10.1,24.1c.2-.2.5-.3.7-.4.2,0,.4-.1.4-.1v-.8c-.2,0-.5,0-.7.2-.3.1-.6.3-.8.5l.4.7ZM8.4,22.3l1.2,1.6.6-.5-1.2-1.6-.6.5ZM10.1,19.6l-1.8,2.2.6.5,1.8-2.2-.6-.5ZM10.9,21.5c0-.7,0-1.3-.1-1.7h-.8c0,.5.1,1,0,1.7h.8ZM11.1,21.6c0,0-.1,0-.1-.1h-.8c0,.5.4.9.9.9v-.8ZM11.1,21.5c0,0,0,0,0,0v.8c.5,0,.9-.4.9-.9h-.8ZM10.8,18.7c0,0,.4,1,.4,2.8h.8c0-1.9-.4-2.9-.4-3.1l-.7.3ZM10.8,18.7h0s.7-.3.7-.3h0s-.7.3-.7.3ZM10.7,18.7s0,0,0,0l.7-.3c-.1-.3-.4-.5-.7-.5v.8ZM10.6,18.7s0,0,0,0v-.8c-.2,0-.5,0-.7.3l.6.5ZM8,22l2.6-3.3-.6-.5-2.6,3.3.6.5ZM8,22.2s0,0,0-.1l-.6-.5c-.2.3-.3.8,0,1.1l.6-.5ZM11.6,27.2l-3.6-5-.6.5,3.6,5,.6-.5ZM11.2,29.5c.8-.5.9-1.6.4-2.3l-.6.5c.3.4.2.9-.2,1.2l.5.7ZM9.9,29.8c.4,0,.9,0,1.3-.3l-.5-.6c-.2.1-.4.2-.7.2v.8ZM8.8,29.1c.3.4.6.6,1.1.7v-.8c-.1,0-.3-.2-.4-.4l-.7.5ZM4.5,23l4.4,6.1.6-.5-4.4-6.1-.6.5ZM4.4,21.2c-.3.6-.3,1.3.1,1.8l.6-.5c-.2-.3-.2-.6,0-.9l-.7-.4ZM5,31.6c.2-.2.3-.4.5-.5.2-.2.5-.3.9-.4l-.2-.8c-.5.2-.9.3-1.2.6-.3.2-.5.5-.7.7l.6.5ZM4.3,31.5s0,0,0,.1l.6-.6s0,0,0,0c0,0,0,0,0,0l-.7.4ZM4.4,31.5s0,0,0,0c0,0,0,0,0,0l.7-.4s0,0,0-.1l-.6.6ZM6.5,28.3c-.9.4-1.5,1-1.8,1.6-.2.3-.3.6-.3.8,0,.2,0,.5,0,.6h.8c0-.1,0-.1,0-.2,0,0,0-.1,0-.2,0-.2.1-.4.2-.6.3-.5.7-1,1.4-1.2l-.3-.7ZM7.1,27.8c-.3.2-.5.4-.7.4l.3.7c.3-.1.6-.3.9-.6l-.5-.6ZM8.7,29.2l-.9-1.3-.6.5.9,1.3.6-.5ZM8.7,29.3h0c0-.1-.6.4-.6.4h0c0,.1.6-.4.6-.4ZM6.5,30.6c.9-.3,1.6-.5,2.1-.7l-.3-.8c-.5.2-1.2.4-2,.6l.2.8ZM32.1,11.5c0,.2-.2.4-.4.4v.8c.7,0,1.2-.6,1.2-1.2h-.8ZM31.7,11c.2,0,.4.2.4.4h.8c0-.7-.6-1.2-1.2-1.2v.8ZM31.3,11.5c0-.2.2-.4.4-.4v-.8c-.7,0-1.2.6-1.2,1.2h.8ZM31.7,11.9c-.2,0-.4-.2-.4-.4h-.8c0,.7.6,1.2,1.2,1.2v-.8ZM32.1,15.9c0,.2-.2.4-.4.4v.8c.7,0,1.2-.6,1.2-1.2h-.8ZM31.7,15.5c.2,0,.4.2.4.4h.8c0-.7-.6-1.2-1.2-1.2v.8ZM31.3,15.9c0-.2.2-.4.4-.4v-.8c-.7,0-1.2.6-1.2,1.2h.8ZM31.7,16.4c-.2,0-.4-.2-.4-.4h-.8c0,.7.6,1.2,1.2,1.2v-.8ZM31.7,21.6c.7,0,1.2-.6,1.2-1.2h-.8c0,.2-.2.4-.4.4v.8ZM30.5,20.4c0,.7.6,1.2,1.2,1.2v-.8c-.2,0-.4-.2-.4-.4h-.8ZM31.7,19.2c-.7,0-1.2.6-1.2,1.2h.8c0-.2.2-.4.4-.4v-.8ZM32.9,20.4c0-.7-.6-1.2-1.2-1.2v.8c.2,0,.4.2.4.4h.8ZM16.7,37.6h-7.6v.8h7.6v-.8ZM17.6,38.5c0-.5-.4-.9-.9-.9v.8c0,0,0,0,0,0h.8ZM16.7,39.4c.5,0,.9-.4.9-.9h-.8c0,0,0,0,0,0v.8ZM9.1,39.4h7.6v-.8h-7.6v.8ZM8.2,38.5c0,.5.4.9.9.9v-.8c0,0,0,0,0,0h-.8ZM9.1,37.6c-.5,0-.9.4-.9.9h.8c0,0,0,0,0,0v-.8Z"/>
  <text class="st3" transform="translate(40.8 24.6)"><tspan x="0" y="0">Steffan Harris </tspan></text>
  <text class="st0" transform="translate(65.5 33)"><tspan x="0" y="0">BSc Chiropractic</tspan></text>
</svg>